<svg width="72" height="31" viewBox="0 0 72 31" fill="none" xmlns="http://www.w3.org/2000/svg">
<path d="M-0.00146484 9.46041H7.09927V25.662H10.1516C17.0007 25.662 20.4239 22.3343 20.4212 15.6788C20.4212 9.15935 17.243 5.9008 10.8866 5.90318H9.60435V0.628906L10.5211 0.628906C15.9886 0.628906 20.2364 1.94091 23.2647 4.56493C26.293 7.18895 27.8057 10.8423 27.8031 15.525C27.8031 20.5106 26.2354 24.3274 23.1 26.9752C19.9647 29.6231 15.4263 30.9554 9.48493 30.9721H-0.00146484V9.46041Z" fill="#00C65E"/>
<path d="M7.10329 0.628906H-0.00146484V6.95876H7.10329V0.628906Z" fill="#00C65E"/>
<path d="M34.5952 12.9766H32.1606V21.8008H34.5952V12.9766ZM34.771 10.4629C34.771 10.0586 34.6392 9.72461 34.3843 9.47852C34.1206 9.23242 33.769 9.10938 33.3296 9.10938C32.9253 9.10938 32.6001 9.23242 32.354 9.47852C32.1079 9.72461 31.9849 10.0586 31.9849 10.4629C31.9849 10.8672 32.0991 11.1924 32.3452 11.4385C32.5913 11.6846 32.9165 11.8076 33.3296 11.8076C33.769 11.8076 34.1206 11.6846 34.3843 11.4385C34.6392 11.1924 34.771 10.8672 34.771 10.4629ZM39.5522 9.19727H37.1177V21.8008H39.5522V9.19727ZM44.0522 22.3369C43.7622 23.0049 43.2524 23.3301 42.5229 23.3301C42.1626 23.3301 41.8638 23.2773 41.6265 23.1543V25.3076L41.8022 25.3691C41.9253 25.4219 42.1099 25.4658 42.3735 25.5098C42.6284 25.5625 42.8921 25.5801 43.1558 25.5801C44.6323 25.5801 45.7661 24.499 46.5747 22.3369L50.0815 12.9766H47.5679L45.4937 18.8301L43.4282 12.9766H40.9058L44.3247 21.7129L44.0522 22.3369ZM49.9761 20.6318C49.9761 20.9922 50.1167 21.3086 50.3979 21.5723C50.6792 21.8447 51.0132 21.9766 51.4175 21.9766C51.813 21.9766 52.1558 21.8447 52.437 21.5723C52.7183 21.3086 52.8589 20.9922 52.8589 20.6318C52.8589 20.2715 52.7183 19.9551 52.437 19.6826C52.1558 19.4189 51.813 19.2783 51.4175 19.2783C51.0132 19.2783 50.6792 19.4189 50.3979 19.6826C50.1167 19.9551 49.9761 20.2715 49.9761 20.6318ZM60.0571 12.8887H59.6968C59.2134 12.8887 58.7563 13.0029 58.3169 13.2139C57.8774 13.4336 57.5962 13.6094 57.4644 13.7412C57.3413 13.873 57.2358 13.9785 57.1655 14.0576V12.9766H54.7397V21.8008H57.1655V17.5732C57.1655 16.8174 57.3589 16.2373 57.728 15.833C58.0972 15.4287 58.6069 15.2266 59.2397 15.2266C59.6001 15.2354 59.8726 15.2705 60.0483 15.332L60.0571 12.8887ZM67.3521 21.8008H69.7778V12.9766H67.3521V17.6611C67.3521 18.3291 67.1851 18.8389 66.8599 19.1904C66.5347 19.5508 66.0952 19.7266 65.5503 19.7266C65.0581 19.7266 64.645 19.5684 64.3198 19.2432C63.9946 18.9268 63.8364 18.5137 63.8364 18.0215V12.9766H61.4106V18.2588C61.4106 19.3838 61.7271 20.2891 62.3599 20.9658C62.9927 21.6426 63.8188 21.9766 64.8296 21.9766C65.3042 21.9766 65.7612 21.8799 66.2007 21.6865C66.6401 21.4932 66.9214 21.335 67.0532 21.2119C67.1763 21.0889 67.2817 20.9922 67.3521 20.9043V21.8008Z" fill="#00C65E"/>
</svg>
