<svg width="1440" height="114" viewBox="0 0 1440 114" fill="none" xmlns="http://www.w3.org/2000/svg">
<rect x="-0.00146484" y="63.6289" width="1440" height="50" fill="#F7F7F7"/>
<path fill-rule="evenodd" clip-rule="evenodd" d="M135.999 82.009C135.999 81.291 136.581 80.709 137.299 80.709H148.699C149.417 80.709 149.999 81.291 149.999 82.009C149.999 82.727 149.417 83.309 148.699 83.309H137.299C136.581 83.309 135.999 82.727 135.999 82.009ZM135.999 88.2063C135.999 87.4883 136.581 86.9062 137.299 86.9062H148.699C149.417 86.9062 149.999 87.4883 149.999 88.2063C149.999 88.9242 149.417 89.5063 148.699 89.5063H137.299C136.581 89.5063 135.999 88.9242 135.999 88.2063ZM137.299 93.1035C136.581 93.1035 135.999 93.6855 135.999 94.4035C135.999 95.1215 136.581 95.7035 137.299 95.7035H142.699C143.417 95.7035 143.999 95.1215 143.999 94.4035C143.999 93.6855 143.417 93.1035 142.699 93.1035H137.299Z" fill="#363A45"/>
<path d="M162.938 83.9043H161.4V93.707H162.938V90.7676L164.476 89.0859L167.696 93.707H169.59L165.529 87.9648L169.309 83.9043H167.347L162.938 88.6689V83.9043ZM176.036 93.707V89.3662C176.036 88.6553 175.769 88.0605 175.25 87.5752C174.723 87.0898 174.053 86.8438 173.233 86.8438C172.905 86.8438 172.584 86.8916 172.276 86.9805C171.969 87.0693 171.722 87.1719 171.538 87.2812C171.346 87.3975 171.169 87.5273 171.005 87.6709C170.841 87.8145 170.731 87.917 170.683 87.9717C170.635 88.0264 170.601 88.0742 170.574 88.1084L171.483 89.0176L171.668 88.7783C171.777 88.6279 171.975 88.4844 172.262 88.334C172.55 88.1836 172.878 88.1084 173.233 88.1084C173.643 88.1084 173.978 88.2314 174.238 88.4707C174.498 88.7168 174.635 89.0107 174.635 89.3662L172.18 89.79C171.572 89.8926 171.094 90.1318 170.745 90.501C170.396 90.877 170.225 91.3418 170.225 91.8955C170.225 92.4014 170.451 92.8594 170.902 93.2559C171.353 93.6523 171.921 93.8506 172.604 93.8506C172.837 93.8506 173.062 93.8164 173.295 93.7617C173.52 93.7002 173.712 93.6318 173.862 93.5566C174.012 93.4814 174.149 93.3994 174.279 93.3037C174.409 93.208 174.498 93.1465 174.539 93.1055C174.58 93.0645 174.614 93.0303 174.635 93.0166V93.7139L176.036 93.707ZM172.816 92.5928C172.447 92.5928 172.16 92.5039 171.941 92.3398C171.722 92.1689 171.62 91.9707 171.62 91.7451C171.62 91.5059 171.695 91.3076 171.852 91.1504C172.003 90.9863 172.208 90.8838 172.461 90.8428L174.635 90.4941V90.6309C174.635 91.2598 174.47 91.7383 174.149 92.0801C173.828 92.4219 173.384 92.5928 172.816 92.5928ZM177.301 88.2451H179.611V93.707H181.006V88.2451H183.316V86.9873H177.301V88.2451ZM189.968 93.707V89.3662C189.968 88.6553 189.701 88.0605 189.181 87.5752C188.655 87.0898 187.985 86.8438 187.165 86.8438C186.837 86.8438 186.515 86.8916 186.208 86.9805C185.9 87.0693 185.654 87.1719 185.469 87.2812C185.278 87.3975 185.1 87.5273 184.936 87.6709C184.772 87.8145 184.663 87.917 184.615 87.9717C184.567 88.0264 184.533 88.0742 184.506 88.1084L185.415 89.0176L185.599 88.7783C185.709 88.6279 185.907 88.4844 186.194 88.334C186.481 88.1836 186.809 88.1084 187.165 88.1084C187.575 88.1084 187.91 88.2314 188.17 88.4707C188.429 88.7168 188.566 89.0107 188.566 89.3662L186.112 89.79C185.504 89.8926 185.025 90.1318 184.677 90.501C184.328 90.877 184.157 91.3418 184.157 91.8955C184.157 92.4014 184.383 92.8594 184.834 93.2559C185.285 93.6523 185.852 93.8506 186.536 93.8506C186.768 93.8506 186.994 93.8164 187.226 93.7617C187.452 93.7002 187.643 93.6318 187.794 93.5566C187.944 93.4814 188.081 93.3994 188.211 93.3037C188.341 93.208 188.429 93.1465 188.47 93.1055C188.511 93.0645 188.546 93.0303 188.566 93.0166V93.7139L189.968 93.707ZM186.748 92.5928C186.379 92.5928 186.092 92.5039 185.873 92.3398C185.654 92.1689 185.552 91.9707 185.552 91.7451C185.552 91.5059 185.627 91.3076 185.784 91.1504C185.934 90.9863 186.139 90.8838 186.392 90.8428L188.566 90.4941V90.6309C188.566 91.2598 188.402 91.7383 188.081 92.0801C187.76 92.4219 187.315 92.5928 186.748 92.5928ZM192.702 86.9873V88.9492C192.702 89.9131 192.64 90.6582 192.531 91.1914C192.422 91.7246 192.278 92.0664 192.114 92.2236C191.95 92.374 191.724 92.4561 191.437 92.4561C191.301 92.4492 191.136 92.4219 190.952 92.3809V93.7139L191.075 93.7412C191.15 93.7686 191.26 93.7891 191.396 93.8164C191.533 93.8369 191.67 93.8506 191.793 93.8506C192.292 93.8506 192.702 93.7207 193.016 93.4746C193.331 93.2217 193.591 92.7227 193.796 91.9844C194.001 91.2461 194.096 90.2344 194.096 88.9561V88.252H196.475V93.7139H197.877V86.9941L192.702 86.9873ZM205.027 90.3506C205.027 90.9795 204.815 91.5059 204.405 91.9365C203.988 92.374 203.496 92.5859 202.928 92.5859C202.354 92.5859 201.862 92.374 201.445 91.9365C201.028 91.5059 200.823 90.9795 200.823 90.3506C200.823 89.7217 201.028 89.1953 201.445 88.7578C201.862 88.3271 202.354 88.1084 202.928 88.1084C203.496 88.1084 203.988 88.3271 204.405 88.7578C204.815 89.1953 205.027 89.7217 205.027 90.3506ZM199.428 90.3506C199.428 91.2939 199.77 92.1074 200.468 92.8047C201.165 93.502 201.985 93.8506 202.928 93.8506C203.872 93.8506 204.685 93.502 205.383 92.8047C206.08 92.1074 206.428 91.2939 206.428 90.3506C206.428 89.4072 206.08 88.5869 205.383 87.8896C204.685 87.1924 203.872 86.8438 202.928 86.8438C201.985 86.8438 201.165 87.1924 200.468 87.8896C199.77 88.5869 199.428 89.4072 199.428 90.3506ZM212.656 86.9873H207.967V93.707H209.368V88.2451H212.656V86.9873ZM215.883 88.2451H218.193V93.707H219.588V88.2451H221.898V86.9873H215.883V88.2451ZM228.338 90.3506C228.338 90.9795 228.126 91.5059 227.716 91.9365C227.299 92.374 226.806 92.5859 226.239 92.5859C225.665 92.5859 225.173 92.374 224.756 91.9365C224.339 91.5059 224.134 90.9795 224.134 90.3506C224.134 89.7217 224.339 89.1953 224.756 88.7578C225.173 88.3271 225.665 88.1084 226.239 88.1084C226.806 88.1084 227.299 88.3271 227.716 88.7578C228.126 89.1953 228.338 89.7217 228.338 90.3506ZM222.739 90.3506C222.739 91.2939 223.081 92.1074 223.778 92.8047C224.475 93.502 225.296 93.8506 226.239 93.8506C227.182 93.8506 227.996 93.502 228.693 92.8047C229.39 92.1074 229.739 91.2939 229.739 90.3506C229.739 89.4072 229.39 88.5869 228.693 87.8896C227.996 87.1924 227.182 86.8438 226.239 86.8438C225.296 86.8438 224.475 87.1924 223.778 87.8896C223.081 88.5869 222.739 89.4072 222.739 90.3506ZM231.277 86.9873V93.707H234.64C235.351 93.707 235.919 93.5293 236.329 93.1602C236.739 92.7979 236.951 92.3262 236.951 91.7451C236.951 91.5264 236.91 91.3145 236.828 91.123C236.746 90.9316 236.657 90.7812 236.561 90.6719C236.466 90.5625 236.349 90.46 236.219 90.3643C236.083 90.2686 235.994 90.2139 235.946 90.1865C235.891 90.166 235.857 90.1523 235.83 90.1455L236.021 90.0156C236.151 89.9199 236.281 89.7559 236.404 89.5234C236.527 89.291 236.595 89.0312 236.595 88.7441C236.595 88.2383 236.404 87.8145 236.028 87.4863C235.645 87.1582 235.139 86.9941 234.497 86.9941L231.277 86.9873ZM234.64 90.7061C234.907 90.7061 235.126 90.7949 235.297 90.9727C235.461 91.1504 235.55 91.3623 235.55 91.6152C235.55 91.8887 235.468 92.1143 235.303 92.2783C235.139 92.4424 234.914 92.5244 234.64 92.5244H232.678V90.7061H234.64ZM235.201 88.8809C235.201 89.0996 235.133 89.2705 235.01 89.3936C234.88 89.5166 234.709 89.585 234.497 89.585H232.678V88.1836H234.497C234.709 88.1836 234.88 88.2451 235.01 88.3682C235.133 88.4912 235.201 88.6621 235.201 88.8809ZM243.876 93.707V89.3662C243.876 88.6553 243.609 88.0605 243.09 87.5752C242.563 87.0898 241.893 86.8438 241.073 86.8438C240.745 86.8438 240.424 86.8916 240.116 86.9805C239.808 87.0693 239.562 87.1719 239.378 87.2812C239.186 87.3975 239.009 87.5273 238.844 87.6709C238.68 87.8145 238.571 87.917 238.523 87.9717C238.475 88.0264 238.441 88.0742 238.414 88.1084L239.323 89.0176L239.508 88.7783C239.617 88.6279 239.815 88.4844 240.102 88.334C240.389 88.1836 240.718 88.1084 241.073 88.1084C241.483 88.1084 241.818 88.2314 242.078 88.4707C242.338 88.7168 242.474 89.0107 242.474 89.3662L240.02 89.79C239.412 89.8926 238.933 90.1318 238.585 90.501C238.236 90.877 238.065 91.3418 238.065 91.8955C238.065 92.4014 238.291 92.8594 238.742 93.2559C239.193 93.6523 239.76 93.8506 240.444 93.8506C240.677 93.8506 240.902 93.8164 241.135 93.7617C241.36 93.7002 241.552 93.6318 241.702 93.5566C241.852 93.4814 241.989 93.3994 242.119 93.3037C242.249 93.208 242.338 93.1465 242.379 93.1055C242.42 93.0645 242.454 93.0303 242.474 93.0166V93.7139L243.876 93.707ZM240.656 92.5928C240.287 92.5928 240 92.5039 239.781 92.3398C239.562 92.1689 239.46 91.9707 239.46 91.7451C239.46 91.5059 239.535 91.3076 239.692 91.1504C239.843 90.9863 240.048 90.8838 240.301 90.8428L242.474 90.4941V90.6309C242.474 91.2598 242.31 91.7383 241.989 92.0801C241.668 92.4219 241.223 92.5928 240.656 92.5928ZM249.406 93.8438C250.295 93.8438 251.06 93.5088 251.717 92.8252C252.373 92.1416 252.701 91.3145 252.701 90.3438C252.701 89.373 252.373 88.5527 251.717 87.8691C251.06 87.1855 250.295 86.8438 249.406 86.8438C249.01 86.8438 248.627 86.9326 248.251 87.0967C247.868 87.2676 247.622 87.4043 247.506 87.5068C247.389 87.6162 247.301 87.6982 247.239 87.7598V86.9873H245.838V96.6465H247.239V92.9346L247.335 93.0371C247.389 93.0918 247.485 93.167 247.615 93.2627C247.745 93.3584 247.895 93.4473 248.066 93.5361C248.23 93.625 248.435 93.7002 248.675 93.7549C248.907 93.8164 249.153 93.8438 249.406 93.8438ZM249.269 88.1084C249.802 88.1084 250.274 88.3271 250.684 88.7646C251.094 89.2021 251.3 89.7354 251.3 90.3506C251.3 90.9658 251.094 91.4922 250.684 91.9297C250.274 92.3672 249.802 92.5859 249.269 92.5859C248.736 92.5859 248.264 92.3672 247.854 91.9297C247.444 91.4922 247.239 90.9658 247.239 90.3506C247.239 89.7354 247.444 89.2021 247.854 88.7646C248.264 88.3271 248.736 88.1084 249.269 88.1084ZM259.414 90.3506C259.414 90.9795 259.202 91.5059 258.792 91.9365C258.375 92.374 257.883 92.5859 257.315 92.5859C256.741 92.5859 256.249 92.374 255.832 91.9365C255.415 91.5059 255.21 90.9795 255.21 90.3506C255.21 89.7217 255.415 89.1953 255.832 88.7578C256.249 88.3271 256.741 88.1084 257.315 88.1084C257.883 88.1084 258.375 88.3271 258.792 88.7578C259.202 89.1953 259.414 89.7217 259.414 90.3506ZM253.815 90.3506C253.815 91.2939 254.157 92.1074 254.854 92.8047C255.552 93.502 256.372 93.8506 257.315 93.8506C258.259 93.8506 259.072 93.502 259.769 92.8047C260.467 92.1074 260.815 91.2939 260.815 90.3506C260.815 89.4072 260.467 88.5869 259.769 87.8896C259.072 87.1924 258.259 86.8438 257.315 86.8438C256.372 86.8438 255.552 87.1924 254.854 87.8896C254.157 88.5869 253.815 89.4072 253.815 90.3506ZM262.353 86.9873V93.707H265.717C266.427 93.707 266.995 93.5293 267.405 93.1602C267.815 92.7979 268.027 92.3262 268.027 91.7451C268.027 91.5264 267.986 91.3145 267.904 91.123C267.822 90.9316 267.733 90.7812 267.637 90.6719C267.542 90.5625 267.426 90.46 267.296 90.3643C267.159 90.2686 267.07 90.2139 267.022 90.1865C266.968 90.166 266.933 90.1523 266.906 90.1455L267.097 90.0156C267.227 89.9199 267.357 89.7559 267.48 89.5234C267.603 89.291 267.672 89.0312 267.672 88.7441C267.672 88.2383 267.48 87.8145 267.104 87.4863C266.721 87.1582 266.216 86.9941 265.573 86.9941L262.353 86.9873ZM265.717 90.7061C265.983 90.7061 266.202 90.7949 266.373 90.9727C266.537 91.1504 266.626 91.3623 266.626 91.6152C266.626 91.8887 266.544 92.1143 266.38 92.2783C266.216 92.4424 265.99 92.5244 265.717 92.5244H263.755V90.7061H265.717ZM266.277 88.8809C266.277 89.0996 266.209 89.2705 266.086 89.3936C265.956 89.5166 265.785 89.585 265.573 89.585H263.755V88.1836H265.573C265.785 88.1836 265.956 88.2451 266.086 88.3682C266.209 88.4912 266.277 88.6621 266.277 88.8809Z" fill="#00C65E"/>
<g clip-path="url(#clip0_1457_627)">
<mask id="path-4-inside-1_1457_627" fill="white">
<path fill-rule="evenodd" clip-rule="evenodd" d="M308.999 83.7555C308.999 83.1419 309.496 82.6445 310.109 82.6445H319.831C320.445 82.6445 320.942 83.1419 320.942 83.7555V85.3694H323.675C324.11 85.3694 324.505 85.6232 324.685 86.0189L325.898 88.6751C325.964 88.82 325.999 88.9773 325.999 89.1366V91.3095C325.999 91.923 325.501 92.4204 324.888 92.4204H320.39V92.4196H310.11C309.496 92.4196 308.999 91.9222 308.999 91.3087V83.7555Z"/>
</mask>
<path d="M320.942 85.3694H320.242V86.0694H320.942V85.3694ZM324.685 86.0189L324.049 86.3097L324.685 86.0189ZM325.898 88.6751L325.261 88.9659L325.261 88.9659L325.898 88.6751ZM320.39 92.4204H319.69V93.1204H320.39V92.4204ZM320.39 92.4196H321.09V91.7196H320.39V92.4196ZM310.109 81.9445C309.109 81.9445 308.299 82.7553 308.299 83.7555H309.699C309.699 83.5285 309.883 83.3445 310.109 83.3445V81.9445ZM319.831 81.9445H310.109V83.3445H319.831V81.9445ZM321.642 83.7555C321.642 82.7553 320.831 81.9445 319.831 81.9445V83.3445C320.058 83.3445 320.242 83.5285 320.242 83.7555H321.642ZM321.642 85.3694V83.7555H320.242V85.3694H321.642ZM323.675 84.6694H320.942V86.0694H323.675V84.6694ZM325.322 85.7282C325.028 85.0832 324.384 84.6694 323.675 84.6694V86.0694C323.836 86.0694 323.982 86.1633 324.049 86.3097L325.322 85.7282ZM326.535 88.3843L325.322 85.7282L324.049 86.3097L325.261 88.9659L326.535 88.3843ZM326.699 89.1366C326.699 88.877 326.643 88.6205 326.535 88.3843L325.261 88.9659C325.286 89.0194 325.299 89.0777 325.299 89.1366H326.699ZM326.699 91.3095V89.1366H325.299V91.3095H326.699ZM324.888 93.1204C325.888 93.1204 326.699 92.3096 326.699 91.3095H325.299C325.299 91.5364 325.115 91.7204 324.888 91.7204V93.1204ZM320.39 93.1204H324.888V91.7204H320.39V93.1204ZM319.69 92.4196V92.4204H321.09V92.4196H319.69ZM310.11 93.1196H320.39V91.7196H310.11V93.1196ZM308.299 91.3087C308.299 92.3088 309.109 93.1196 310.11 93.1196V91.7196C309.883 91.7196 309.699 91.5356 309.699 91.3087H308.299ZM308.299 83.7555V91.3087H309.699V83.7555H308.299Z" fill="#363A45" mask="url(#path-4-inside-1_1457_627)"/>
<path d="M323.43 86.4844H321.582C321.459 86.4844 321.359 86.5839 321.359 86.7066V88.7857C321.359 88.9084 321.459 89.0079 321.582 89.0079H324.457C324.619 89.0079 324.726 88.8405 324.659 88.6934L323.742 86.6845C323.686 86.5626 323.564 86.4844 323.43 86.4844Z" fill="#00C65E"/>
<path d="M319.802 91.9275C319.802 92.7534 320.471 93.4229 321.297 93.4229C322.123 93.4229 322.793 92.7534 322.793 91.9275C322.793 91.1016 322.123 90.432 321.297 90.432C320.471 90.432 319.802 91.1016 319.802 91.9275Z" fill="white" stroke="#363A45" stroke-width="0.7"/>
<path d="M321.298 92.8513C320.789 92.8513 320.375 92.4382 320.375 91.9286C320.375 91.419 320.789 91.0059 321.298 91.0059C321.808 91.0059 322.221 91.419 322.221 91.9286C322.221 92.4382 321.808 92.8513 321.298 92.8513Z" fill="#00C65E"/>
<path d="M312.205 91.9275C312.205 92.7534 312.874 93.4229 313.7 93.4229C314.526 93.4229 315.195 92.7534 315.195 91.9275C315.195 91.1016 314.526 90.432 313.7 90.432C312.874 90.432 312.205 91.1016 312.205 91.9275Z" fill="white" stroke="#363A45" stroke-width="0.7"/>
<path d="M313.701 92.8513C313.191 92.8513 312.778 92.4382 312.778 91.9286C312.778 91.419 313.191 91.0059 313.701 91.0059C314.21 91.0059 314.624 91.419 314.624 91.9286C314.624 92.4382 314.21 92.8513 313.701 92.8513Z" fill="#00C65E"/>
</g>
<path d="M335.999 92.3057V95.8057H337.537V93.707H344.256V95.8057H345.801V92.3057H344.612V83.9043H338.241V86.8438C338.241 87.5752 338.179 88.2656 338.056 88.9219C337.933 89.5781 337.796 90.0908 337.646 90.4736C337.496 90.8496 337.332 91.1982 337.14 91.5127C336.949 91.8271 336.812 92.0322 336.737 92.1211C336.662 92.21 336.6 92.2715 336.559 92.3057H335.999ZM339.779 86.8438V85.3057H343.067V92.3057H338.097L338.268 92.1279C338.384 92.0049 338.528 91.7998 338.692 91.5059C338.856 91.2119 339.02 90.8633 339.184 90.4668C339.348 90.0703 339.485 89.5508 339.601 88.9082C339.717 88.2656 339.779 87.5752 339.779 86.8438ZM352.316 90.3506C352.316 90.9795 352.104 91.5059 351.694 91.9365C351.277 92.374 350.785 92.5859 350.217 92.5859C349.643 92.5859 349.151 92.374 348.734 91.9365C348.317 91.5059 348.112 90.9795 348.112 90.3506C348.112 89.7217 348.317 89.1953 348.734 88.7578C349.151 88.3271 349.643 88.1084 350.217 88.1084C350.785 88.1084 351.277 88.3271 351.694 88.7578C352.104 89.1953 352.316 89.7217 352.316 90.3506ZM346.717 90.3506C346.717 91.2939 347.059 92.1074 347.756 92.8047C348.454 93.502 349.274 93.8506 350.217 93.8506C351.161 93.8506 351.974 93.502 352.671 92.8047C353.369 92.1074 353.717 91.2939 353.717 90.3506C353.717 89.4072 353.369 88.5869 352.671 87.8896C351.974 87.1924 351.161 86.8438 350.217 86.8438C349.274 86.8438 348.454 87.1924 347.756 87.8896C347.059 88.5869 346.717 89.4072 346.717 90.3506ZM354.838 90.3506C354.838 91.2939 355.18 92.1074 355.877 92.8047C356.575 93.502 357.395 93.8506 358.338 93.8506C358.66 93.8506 358.981 93.7959 359.302 93.6934C359.617 93.5908 359.876 93.4814 360.082 93.3584C360.28 93.2354 360.471 93.0986 360.656 92.9414C360.833 92.7842 360.957 92.6748 361.011 92.6064C361.066 92.5381 361.107 92.4902 361.134 92.4561L360.225 91.5469L360.013 91.8066C359.876 91.9707 359.651 92.1484 359.336 92.3262C359.022 92.5039 358.694 92.5928 358.338 92.5928C357.764 92.5928 357.272 92.374 356.855 91.9434C356.438 91.5059 356.233 90.9795 356.233 90.3506C356.233 89.7217 356.438 89.1953 356.855 88.7646C357.272 88.3271 357.764 88.1152 358.338 88.1152C358.694 88.1152 359.022 88.2041 359.336 88.3887C359.651 88.5664 359.849 88.71 359.945 88.8193C360.041 88.9287 360.109 89.0176 360.157 89.0928L361.066 88.1836L360.772 87.8623C360.574 87.6367 360.252 87.4111 359.801 87.1855C359.35 86.96 358.858 86.8506 358.338 86.8506C357.395 86.8506 356.575 87.1992 355.877 87.8965C355.18 88.5938 354.838 89.4072 354.838 90.3506ZM361.832 88.2451H364.142V93.707H365.537V88.2451H367.847V86.9873H361.832V88.2451ZM374.499 93.707V89.3662C374.499 88.6553 374.232 88.0605 373.712 87.5752C373.186 87.0898 372.516 86.8438 371.696 86.8438C371.368 86.8438 371.046 86.8916 370.739 86.9805C370.431 87.0693 370.185 87.1719 370 87.2812C369.809 87.3975 369.631 87.5273 369.467 87.6709C369.303 87.8145 369.194 87.917 369.146 87.9717C369.098 88.0264 369.064 88.0742 369.037 88.1084L369.946 89.0176L370.13 88.7783C370.24 88.6279 370.438 88.4844 370.725 88.334C371.012 88.1836 371.34 88.1084 371.696 88.1084C372.106 88.1084 372.441 88.2314 372.701 88.4707C372.96 88.7168 373.097 89.0107 373.097 89.3662L370.643 89.79C370.035 89.8926 369.556 90.1318 369.208 90.501C368.859 90.877 368.688 91.3418 368.688 91.8955C368.688 92.4014 368.914 92.8594 369.365 93.2559C369.816 93.6523 370.383 93.8506 371.067 93.8506C371.299 93.8506 371.525 93.8164 371.757 93.7617C371.983 93.7002 372.174 93.6318 372.325 93.5566C372.475 93.4814 372.612 93.3994 372.742 93.3037C372.872 93.208 372.96 93.1465 373.001 93.1055C373.042 93.0645 373.077 93.0303 373.097 93.0166V93.7139L374.499 93.707ZM371.279 92.5928C370.91 92.5928 370.623 92.5039 370.404 92.3398C370.185 92.1689 370.083 91.9707 370.083 91.7451C370.083 91.5059 370.158 91.3076 370.315 91.1504C370.465 90.9863 370.67 90.8838 370.923 90.8428L373.097 90.4941V90.6309C373.097 91.2598 372.933 91.7383 372.612 92.0801C372.291 92.4219 371.846 92.5928 371.279 92.5928ZM376.46 86.9873V93.707H379.824C380.535 93.707 381.102 93.5293 381.512 93.1602C381.922 92.7979 382.134 92.3262 382.134 91.7451C382.134 91.5264 382.093 91.3145 382.011 91.123C381.929 90.9316 381.84 90.7812 381.745 90.6719C381.649 90.5625 381.533 90.46 381.403 90.3643C381.266 90.2686 381.177 90.2139 381.129 90.1865C381.075 90.166 381.041 90.1523 381.013 90.1455L381.205 90.0156C381.334 89.9199 381.464 89.7559 381.587 89.5234C381.71 89.291 381.779 89.0312 381.779 88.7441C381.779 88.2383 381.587 87.8145 381.211 87.4863C380.829 87.1582 380.323 86.9941 379.68 86.9941L376.46 86.9873ZM379.824 90.7061C380.09 90.7061 380.309 90.7949 380.48 90.9727C380.644 91.1504 380.733 91.3623 380.733 91.6152C380.733 91.8887 380.651 92.1143 380.487 92.2783C380.323 92.4424 380.097 92.5244 379.824 92.5244H377.862V90.7061H379.824ZM380.384 88.8809C380.384 89.0996 380.316 89.2705 380.193 89.3936C380.063 89.5166 379.892 89.585 379.68 89.585H377.862V88.1836H379.68C379.892 88.1836 380.063 88.2451 380.193 88.3682C380.316 88.4912 380.384 88.6621 380.384 88.8809ZM389.62 86.9873H387.938L385.067 89.9951V86.9873H383.666V93.707H385.067V91.8203L386.12 90.6992L388.287 93.707H389.825L387.029 89.79L389.62 86.9873ZM396.333 93.707V89.3662C396.333 88.6553 396.066 88.0605 395.546 87.5752C395.02 87.0898 394.35 86.8438 393.53 86.8438C393.202 86.8438 392.88 86.8916 392.573 86.9805C392.265 87.0693 392.019 87.1719 391.834 87.2812C391.643 87.3975 391.465 87.5273 391.301 87.6709C391.137 87.8145 391.028 87.917 390.98 87.9717C390.932 88.0264 390.898 88.0742 390.871 88.1084L391.78 89.0176L391.964 88.7783C392.074 88.6279 392.272 88.4844 392.559 88.334C392.846 88.1836 393.174 88.1084 393.53 88.1084C393.94 88.1084 394.275 88.2314 394.535 88.4707C394.794 88.7168 394.931 89.0107 394.931 89.3662L392.477 89.79C391.869 89.8926 391.39 90.1318 391.042 90.501C390.693 90.877 390.522 91.3418 390.522 91.8955C390.522 92.4014 390.748 92.8594 391.199 93.2559C391.65 93.6523 392.217 93.8506 392.901 93.8506C393.133 93.8506 393.359 93.8164 393.591 93.7617C393.817 93.7002 394.008 93.6318 394.159 93.5566C394.309 93.4814 394.446 93.3994 394.576 93.3037C394.706 93.208 394.794 93.1465 394.835 93.1055C394.876 93.0645 394.911 93.0303 394.931 93.0166V93.7139L396.333 93.707ZM393.113 92.5928C392.744 92.5928 392.457 92.5039 392.238 92.3398C392.019 92.1689 391.917 91.9707 391.917 91.7451C391.917 91.5059 391.992 91.3076 392.149 91.1504C392.299 90.9863 392.504 90.8838 392.757 90.8428L394.931 90.4941V90.6309C394.931 91.2598 394.767 91.7383 394.446 92.0801C394.125 92.4219 393.68 92.5928 393.113 92.5928ZM405.999 86.9873L402.499 91.3965V86.9873H401.097V93.707H402.355L405.855 89.2979V93.707H407.256V86.9873H405.999ZM417.203 90.3506C417.203 90.9795 416.991 91.5059 416.581 91.9365C416.164 92.374 415.671 92.5859 415.104 92.5859C414.53 92.5859 414.038 92.374 413.621 91.9365C413.204 91.5059 412.999 90.9795 412.999 90.3506C412.999 89.7217 413.204 89.1953 413.621 88.7578C414.038 88.3271 414.53 88.1084 415.104 88.1084C415.671 88.1084 416.164 88.3271 416.581 88.7578C416.991 89.1953 417.203 89.7217 417.203 90.3506ZM411.604 90.3506C411.604 91.2939 411.946 92.1074 412.643 92.8047C413.34 93.502 414.161 93.8506 415.104 93.8506C416.047 93.8506 416.861 93.502 417.558 92.8047C418.255 92.1074 418.604 91.2939 418.604 90.3506C418.604 89.4072 418.255 88.5869 417.558 87.8896C416.861 87.1924 416.047 86.8438 415.104 86.8438C414.161 86.8438 413.34 87.1924 412.643 87.8896C411.946 88.5869 411.604 89.4072 411.604 90.3506ZM421.543 88.2451H424.832V93.707H426.233V86.9873H420.142V93.707H421.543V88.2451ZM428.967 86.9873V88.9492C428.967 89.9131 428.906 90.6582 428.796 91.1914C428.687 91.7246 428.543 92.0664 428.379 92.2236C428.215 92.374 427.99 92.4561 427.703 92.4561C427.566 92.4492 427.402 92.4219 427.217 92.3809V93.7139L427.34 93.7412C427.416 93.7686 427.525 93.7891 427.662 93.8164C427.798 93.8369 427.935 93.8506 428.058 93.8506C428.557 93.8506 428.967 93.7207 429.282 93.4746C429.596 93.2217 429.856 92.7227 430.061 91.9844C430.266 91.2461 430.362 90.2344 430.362 88.9561V88.252H432.741V93.7139H434.142V86.9941L428.967 86.9873ZM441.504 93.707V89.3662C441.504 88.6553 441.238 88.0605 440.718 87.5752C440.192 87.0898 439.522 86.8438 438.702 86.8438C438.374 86.8438 438.052 86.8916 437.745 86.9805C437.437 87.0693 437.191 87.1719 437.006 87.2812C436.815 87.3975 436.637 87.5273 436.473 87.6709C436.309 87.8145 436.2 87.917 436.152 87.9717C436.104 88.0264 436.07 88.0742 436.042 88.1084L436.952 89.0176L437.136 88.7783C437.246 88.6279 437.444 88.4844 437.731 88.334C438.018 88.1836 438.346 88.1084 438.702 88.1084C439.112 88.1084 439.447 88.2314 439.707 88.4707C439.966 88.7168 440.103 89.0107 440.103 89.3662L437.649 89.79C437.041 89.8926 436.562 90.1318 436.213 90.501C435.865 90.877 435.694 91.3418 435.694 91.8955C435.694 92.4014 435.919 92.8594 436.371 93.2559C436.822 93.6523 437.389 93.8506 438.073 93.8506C438.305 93.8506 438.531 93.8164 438.763 93.7617C438.989 93.7002 439.18 93.6318 439.331 93.5566C439.481 93.4814 439.618 93.3994 439.748 93.3037C439.877 93.208 439.966 93.1465 440.007 93.1055C440.048 93.0645 440.083 93.0303 440.103 93.0166V93.7139L441.504 93.707ZM438.285 92.5928C437.916 92.5928 437.628 92.5039 437.41 92.3398C437.191 92.1689 437.088 91.9707 437.088 91.7451C437.088 91.5059 437.164 91.3076 437.321 91.1504C437.471 90.9863 437.676 90.8838 437.929 90.8428L440.103 90.4941V90.6309C440.103 91.2598 439.939 91.7383 439.618 92.0801C439.296 92.4219 438.852 92.5928 438.285 92.5928ZM442.769 88.2451H445.08V93.707H446.474V88.2451H448.785V86.9873H442.769V88.2451ZM455.436 93.707V89.3662C455.436 88.6553 455.169 88.0605 454.65 87.5752C454.124 87.0898 453.454 86.8438 452.633 86.8438C452.305 86.8438 451.984 86.8916 451.676 86.9805C451.369 87.0693 451.123 87.1719 450.938 87.2812C450.747 87.3975 450.569 87.5273 450.405 87.6709C450.241 87.8145 450.131 87.917 450.083 87.9717C450.036 88.0264 450.001 88.0742 449.974 88.1084L450.883 89.0176L451.068 88.7783C451.177 88.6279 451.375 88.4844 451.663 88.334C451.95 88.1836 452.278 88.1084 452.633 88.1084C453.043 88.1084 453.378 88.2314 453.638 88.4707C453.898 88.7168 454.035 89.0107 454.035 89.3662L451.581 89.79C450.972 89.8926 450.494 90.1318 450.145 90.501C449.796 90.877 449.625 91.3418 449.625 91.8955C449.625 92.4014 449.851 92.8594 450.302 93.2559C450.753 93.6523 451.321 93.8506 452.004 93.8506C452.237 93.8506 452.462 93.8164 452.695 93.7617C452.92 93.7002 453.112 93.6318 453.262 93.5566C453.413 93.4814 453.549 93.3994 453.679 93.3037C453.809 93.208 453.898 93.1465 453.939 93.1055C453.98 93.0645 454.014 93.0303 454.035 93.0166V93.7139L455.436 93.707ZM452.216 92.5928C451.847 92.5928 451.56 92.5039 451.341 92.3398C451.123 92.1689 451.02 91.9707 451.02 91.7451C451.02 91.5059 451.095 91.3076 451.252 91.1504C451.403 90.9863 451.608 90.8838 451.861 90.8428L454.035 90.4941V90.6309C454.035 91.2598 453.871 91.7383 453.549 92.0801C453.228 92.4219 452.784 92.5928 452.216 92.5928Z" fill="#363A45"/>
<rect x="-0.00146484" y="112.129" width="1440" height="1.5" fill="#DADCDC"/>
<g clip-path="url(#clip1_1457_627)">
<rect x="719.477" y="74.6289" width="300" height="28" rx="14" fill="white"/>
<path d="M743.947 93.0994L743.947 93.0994L743.947 93.0994Z" fill="#363A45" stroke="#363A45" stroke-width="2"/>
<path opacity="0.4" d="M762.329 85.627C761.708 85.627 761.196 85.8271 760.786 86.2275C760.375 86.6279 760.17 87.1309 760.17 87.7266C760.17 88.0293 760.224 88.3076 760.327 88.5518C760.434 88.7959 760.551 88.9863 760.678 89.123C760.81 89.2598 760.957 89.3818 761.123 89.4844C761.289 89.5918 761.406 89.6553 761.469 89.6748C761.533 89.6992 761.582 89.7188 761.621 89.7334L759.97 92.6338H760.82L762.373 89.8359H764.375V92.6338H765.122V85.6318L762.329 85.627ZM764.375 86.335V89.1328H762.324C761.899 89.1328 761.557 89.0059 761.303 88.752C761.049 88.498 760.922 88.1611 760.922 87.7314C760.922 87.3018 761.049 86.9648 761.303 86.7109C761.557 86.457 761.899 86.3301 762.324 86.3301L764.375 86.335ZM770.429 90.6807L771.831 92.6289H772.68L770.878 90.1289L772.529 87.8291H771.679L770.429 89.5771L769.179 87.8291H768.33L769.98 90.1289L768.178 92.6289H769.033L770.429 90.6807ZM777.485 90.2314C777.485 90.749 777.309 91.1885 776.967 91.5449C776.625 91.9014 776.21 92.0771 775.732 92.0771C775.253 92.0771 774.838 91.9014 774.497 91.54C774.155 91.1787 773.984 90.7441 773.984 90.2266C773.984 89.709 774.155 89.2744 774.497 88.918C774.838 88.5615 775.253 88.3809 775.732 88.3809C776.21 88.3809 776.625 88.5615 776.967 88.918C777.309 89.2744 777.485 89.7139 777.485 90.2314ZM773.286 90.2314C773.286 90.9346 773.52 91.5254 773.999 92.0088C774.477 92.4873 775.053 92.7314 775.737 92.7314C776.416 92.7314 776.992 92.4873 777.465 92.0088C777.944 91.5254 778.178 90.9346 778.178 90.2314C778.178 89.5283 777.944 88.9375 777.465 88.4541C776.992 87.9707 776.416 87.7266 775.737 87.7266C775.053 87.7266 774.477 87.9707 773.999 88.4541C773.52 88.9375 773.286 89.5283 773.286 90.2314ZM782.534 92.6289H783.237V87.8291H782.534V89.9775L782.387 90.0898C782.29 90.168 782.133 90.2461 781.918 90.3193C781.704 90.3926 781.474 90.4268 781.235 90.4268C780.883 90.4268 780.595 90.3145 780.371 90.0898C780.146 89.8652 780.034 89.5771 780.034 89.2305V87.8291H779.335V89.2305C779.335 89.7773 779.506 90.2266 779.848 90.5684C780.19 90.9102 780.639 91.0811 781.186 91.0811C781.713 91.0811 782.163 90.9492 782.534 90.6807V92.6289ZM785.888 93.3271C785.708 93.8301 785.405 94.0791 784.98 94.0791C784.814 94.0791 784.648 94.0449 784.482 93.9766V94.6309L784.55 94.6504C784.599 94.6699 784.677 94.6895 784.775 94.7041C784.873 94.7236 784.975 94.7285 785.083 94.7285C785.429 94.7285 785.717 94.626 785.947 94.4111C786.171 94.1963 786.386 93.835 786.586 93.3271L788.789 87.8291H788.037L786.489 91.7305L784.936 87.8291H784.184L786.137 92.6289L785.888 93.3271ZM792.343 91.2812L793.295 90.2803L794.995 92.6289H795.795L793.745 89.7773L795.595 87.8291H794.741L792.343 90.3779V87.8291H791.645V92.6289H792.343V91.2812ZM797.744 93.3271C797.563 93.8301 797.26 94.0791 796.835 94.0791C796.669 94.0791 796.503 94.0449 796.337 93.9766V94.6309L796.406 94.6504C796.455 94.6699 796.533 94.6895 796.63 94.7041C796.728 94.7236 796.831 94.7285 796.938 94.7285C797.285 94.7285 797.573 94.626 797.802 94.4111C798.027 94.1963 798.242 93.835 798.442 93.3271L800.644 87.8291H799.892L798.344 91.7305L796.792 87.8291H796.04L797.993 92.6289L797.744 93.3271ZM805.043 92.6289H805.747V87.8291H801.596V92.6289H802.294V88.4883H805.043V92.6289ZM810.947 87.8291L808.046 91.4277V87.8291H807.348V92.6289H807.944L810.844 89.0303V92.6289H811.547V87.8291H810.947ZM812.548 88.4785H814.248V92.6289H814.946V88.4785H816.645V87.8291H812.548V88.4785ZM818.349 91.9795V90.0801H819.599C819.917 90.0801 820.17 90.168 820.361 90.3438C820.551 90.5195 820.649 90.749 820.649 91.0273C820.649 91.3105 820.551 91.54 820.361 91.7158C820.17 91.8916 819.921 91.9795 819.609 91.9795H818.349ZM821.347 91.0322C821.347 90.5537 821.191 90.1631 820.878 89.8701C820.566 89.5771 820.136 89.4307 819.599 89.4307H818.349V87.8291H817.651V92.6289H819.609C820.146 92.6289 820.571 92.4824 820.883 92.1895C821.191 91.8965 821.347 91.5107 821.347 91.0322Z" fill="#363A45"/>
<path d="M930.477 74.6289H1014.48C1017.24 74.6289 1019.48 76.8675 1019.48 79.6289V97.6289C1019.48 100.39 1017.24 102.629 1014.48 102.629H930.477V74.6289Z" fill="#DADCDC"/>
<path d="M963.788 83.8262H962.25V87.9619H957.417V83.8262H955.878V93.6289H957.417V89.3564H962.25V93.6289H963.788V83.8262ZM971.485 93.6289V89.2881C971.485 88.5771 971.218 87.9824 970.699 87.4971C970.172 87.0117 969.502 86.7656 968.682 86.7656C968.354 86.7656 968.033 86.8135 967.725 86.9023C967.417 86.9912 967.171 87.0938 966.987 87.2031C966.795 87.3193 966.618 87.4492 966.454 87.5928C966.29 87.7363 966.18 87.8389 966.132 87.8936C966.084 87.9482 966.05 87.9961 966.023 88.0303L966.932 88.9395L967.117 88.7002C967.226 88.5498 967.424 88.4062 967.711 88.2559C967.999 88.1055 968.327 88.0303 968.682 88.0303C969.092 88.0303 969.427 88.1533 969.687 88.3926C969.947 88.6387 970.083 88.9326 970.083 89.2881L967.629 89.7119C967.021 89.8145 966.542 90.0537 966.194 90.4229C965.845 90.7988 965.674 91.2637 965.674 91.8174C965.674 92.3232 965.9 92.7812 966.351 93.1777C966.802 93.5742 967.37 93.7725 968.053 93.7725C968.286 93.7725 968.511 93.7383 968.744 93.6836C968.969 93.6221 969.161 93.5537 969.311 93.4785C969.461 93.4033 969.598 93.3213 969.728 93.2256C969.858 93.1299 969.947 93.0684 969.988 93.0273C970.029 92.9863 970.063 92.9521 970.083 92.9385V93.6357L971.485 93.6289ZM968.265 92.5146C967.896 92.5146 967.609 92.4258 967.39 92.2617C967.171 92.0908 967.069 91.8926 967.069 91.667C967.069 91.4277 967.144 91.2295 967.301 91.0723C967.452 90.9082 967.657 90.8057 967.91 90.7646L970.083 90.416V90.5527C970.083 91.1816 969.919 91.6602 969.598 92.002C969.277 92.3438 968.833 92.5146 968.265 92.5146ZM978.348 86.9092L974.848 91.3184V86.9092H973.447V93.6289H974.705L978.205 89.2197V93.6289H979.606V86.9092H978.348ZM976.523 84.8105C976.243 84.8105 976.01 84.7217 975.826 84.5303C975.634 84.3389 975.545 84.1064 975.545 83.8262H974.5C974.5 84.3867 974.691 84.8584 975.074 85.2275C975.457 85.6035 975.942 85.7881 976.53 85.7881C977.118 85.7881 977.603 85.6035 977.986 85.2275C978.369 84.8584 978.56 84.3867 978.56 83.8262H977.507C977.507 84.1133 977.412 84.3457 977.227 84.5303C977.036 84.7217 976.803 84.8105 976.523 84.8105ZM980.871 88.167H983.181V93.6289H984.576V88.167H986.886V86.9092H980.871V88.167ZM993.045 86.9092L989.545 91.3184V86.9092H988.144V93.6289H989.402L992.902 89.2197V93.6289H994.303V86.9092H993.045Z" fill="#363A45"/>
</g>
<path d="M1110.35 84.3262H1102.45V94.1289H1103.98V85.7275H1108.82V94.1289H1110.35V84.3262ZM1117.84 90.7725C1117.84 91.4014 1117.63 91.9277 1117.22 92.3584C1116.8 92.7959 1116.31 93.0078 1115.74 93.0078C1115.17 93.0078 1114.68 92.7959 1114.26 92.3584C1113.84 91.9277 1113.64 91.4014 1113.64 90.7725C1113.64 90.1436 1113.84 89.6172 1114.26 89.1797C1114.68 88.749 1115.17 88.5303 1115.74 88.5303C1116.31 88.5303 1116.8 88.749 1117.22 89.1797C1117.63 89.6172 1117.84 90.1436 1117.84 90.7725ZM1112.24 90.7725C1112.24 91.7158 1112.58 92.5293 1113.28 93.2266C1113.98 93.9238 1114.8 94.2725 1115.74 94.2725C1116.68 94.2725 1117.5 93.9238 1118.2 93.2266C1118.89 92.5293 1119.24 91.7158 1119.24 90.7725C1119.24 89.8291 1118.89 89.0088 1118.2 88.3115C1117.5 87.6143 1116.68 87.2656 1115.74 87.2656C1114.8 87.2656 1113.98 87.6143 1113.28 88.3115C1112.58 89.0088 1112.24 89.8291 1112.24 90.7725ZM1119.8 92.8711V95.8105H1121.2V94.1289H1125.89V95.8105H1127.29V92.8711H1126.31V87.4092H1121.41V89.3711C1121.41 89.8223 1121.37 90.2461 1121.29 90.6494C1121.2 91.0596 1121.11 91.3877 1121.02 91.6338C1120.92 91.8799 1120.81 92.1123 1120.68 92.3242C1120.55 92.543 1120.46 92.6797 1120.4 92.7412C1120.35 92.8027 1120.31 92.8438 1120.29 92.8711H1119.8ZM1122.81 88.667H1124.91V92.8711H1121.69L1121.8 92.7275C1121.87 92.6455 1121.97 92.5088 1122.08 92.3174C1122.19 92.126 1122.3 91.9004 1122.41 91.6406C1122.52 91.3809 1122.62 91.0459 1122.69 90.6426C1122.77 90.2461 1122.8 89.8223 1122.8 89.3711L1122.81 88.667ZM1128.28 92.8711V95.8105H1129.68V94.1289H1134.37V95.8105H1135.76V92.8711H1134.79V87.4092H1129.89V89.3711C1129.89 89.8223 1129.84 90.2461 1129.76 90.6494C1129.68 91.0596 1129.59 91.3877 1129.5 91.6338C1129.4 91.8799 1129.28 92.1123 1129.15 92.3242C1129.02 92.543 1128.93 92.6797 1128.88 92.7412C1128.83 92.8027 1128.79 92.8438 1128.76 92.8711H1128.28ZM1131.29 88.667H1133.39V92.8711H1130.17L1130.28 92.7275C1130.35 92.6455 1130.45 92.5088 1130.55 92.3174C1130.66 92.126 1130.78 91.9004 1130.89 91.6406C1131 91.3809 1131.09 91.0459 1131.17 90.6426C1131.25 90.2461 1131.28 89.8223 1131.28 89.3711L1131.29 88.667ZM1143.4 91.2578L1143.47 90.5605C1143.47 89.6172 1143.16 88.8379 1142.53 88.209C1141.9 87.5801 1141.12 87.2656 1140.18 87.2656C1139.24 87.2656 1138.43 87.6074 1137.76 88.2773C1137.09 88.9473 1136.75 89.7539 1136.75 90.6973C1136.75 91.6816 1137.1 92.5225 1137.79 93.2197C1138.48 93.917 1139.3 94.2656 1140.25 94.2656C1140.6 94.2656 1140.95 94.2178 1141.29 94.1152C1141.62 94.0127 1141.9 93.9033 1142.1 93.7803C1142.31 93.6572 1142.51 93.5205 1142.7 93.3633C1142.89 93.2061 1143.01 93.0967 1143.06 93.0283C1143.12 92.96 1143.16 92.9121 1143.19 92.8711L1142.28 91.9619L1142.07 92.2217C1141.93 92.3926 1141.69 92.5635 1141.35 92.7412C1141.01 92.9189 1140.64 93.0078 1140.25 93.0078C1139.71 93.0078 1139.24 92.8369 1138.85 92.4883C1138.45 92.1465 1138.22 91.7363 1138.14 91.2578H1143.4ZM1140.17 88.4619C1140.69 88.4619 1141.12 88.6123 1141.46 88.9131C1141.8 89.2139 1142.01 89.5967 1142.09 90.0684H1138.2C1138.33 89.5967 1138.56 89.2139 1138.9 88.9131C1139.24 88.6123 1139.67 88.4619 1140.17 88.4619ZM1148.57 94.2656C1149.46 94.2656 1150.23 93.9307 1150.89 93.2471C1151.54 92.5635 1151.87 91.7363 1151.87 90.7656C1151.87 89.7949 1151.54 88.9746 1150.89 88.291C1150.23 87.6074 1149.46 87.2656 1148.57 87.2656C1148.18 87.2656 1147.8 87.3545 1147.42 87.5186C1147.04 87.6895 1146.79 87.8262 1146.67 87.9287C1146.56 88.0381 1146.47 88.1201 1146.41 88.1816V87.4092H1145.01V97.0684H1146.41V93.3564L1146.5 93.459C1146.56 93.5137 1146.65 93.5889 1146.78 93.6846C1146.91 93.7803 1147.06 93.8691 1147.23 93.958C1147.4 94.0469 1147.6 94.1221 1147.84 94.1768C1148.08 94.2383 1148.32 94.2656 1148.57 94.2656ZM1148.44 88.5303C1148.97 88.5303 1149.44 88.749 1149.85 89.1865C1150.26 89.624 1150.47 90.1572 1150.47 90.7725C1150.47 91.3877 1150.26 91.9141 1149.85 92.3516C1149.44 92.7891 1148.97 93.0078 1148.44 93.0078C1147.9 93.0078 1147.43 92.7891 1147.02 92.3516C1146.61 91.9141 1146.41 91.3877 1146.41 90.7725C1146.41 90.1572 1146.61 89.624 1147.02 89.1865C1147.43 88.749 1147.9 88.5303 1148.44 88.5303ZM1158.15 90.1367V87.4092H1156.76V90.1367L1154.17 87.4092H1152.48L1155.08 90.2119L1152.27 94.1289H1153.82L1155.98 91.1211L1156.76 91.9619V94.1289H1158.15V91.9619L1158.92 91.1211L1161.09 94.1289H1162.64L1159.83 90.2119L1162.42 87.4092H1160.74L1158.15 90.1367ZM1169.7 87.4092H1168.02L1165.15 90.417V87.4092H1163.75V94.1289H1165.15V92.2422L1166.2 91.1211L1168.37 94.1289H1169.91L1167.11 90.2119L1169.7 87.4092ZM1176.42 94.1289V89.7881C1176.42 89.0771 1176.15 88.4824 1175.63 87.9971C1175.1 87.5117 1174.43 87.2656 1173.61 87.2656C1173.29 87.2656 1172.97 87.3135 1172.66 87.4023C1172.35 87.4912 1172.1 87.5938 1171.92 87.7031C1171.73 87.8193 1171.55 87.9492 1171.39 88.0928C1171.22 88.2363 1171.11 88.3389 1171.06 88.3936C1171.02 88.4482 1170.98 88.4961 1170.96 88.5303L1171.86 89.4395L1172.05 89.2002C1172.16 89.0498 1172.36 88.9062 1172.64 88.7559C1172.93 88.6055 1173.26 88.5303 1173.61 88.5303C1174.02 88.5303 1174.36 88.6533 1174.62 88.8926C1174.88 89.1387 1175.02 89.4326 1175.02 89.7881L1172.56 90.2119C1171.95 90.3145 1171.47 90.5537 1171.13 90.9229C1170.78 91.2988 1170.61 91.7637 1170.61 92.3174C1170.61 92.8232 1170.83 93.2812 1171.28 93.6777C1171.73 94.0742 1172.3 94.2725 1172.99 94.2725C1173.22 94.2725 1173.44 94.2383 1173.68 94.1836C1173.9 94.1221 1174.09 94.0537 1174.24 93.9785C1174.39 93.9033 1174.53 93.8213 1174.66 93.7256C1174.79 93.6299 1174.88 93.5684 1174.92 93.5273C1174.96 93.4863 1175 93.4521 1175.02 93.4385V94.1357L1176.42 94.1289ZM1173.2 93.0146C1172.83 93.0146 1172.54 92.9258 1172.32 92.7617C1172.1 92.5908 1172 92.3926 1172 92.167C1172 91.9277 1172.08 91.7295 1172.23 91.5723C1172.38 91.4082 1172.59 91.3057 1172.84 91.2646L1175.02 90.916V91.0527C1175.02 91.6816 1174.85 92.1602 1174.53 92.502C1174.21 92.8438 1173.76 93.0146 1173.2 93.0146Z" fill="#363A45"/>
<path d="M1211.23 89.1914H1209.11C1208.8 89.1914 1208.54 88.9371 1208.54 88.6289V86.5039C1208.54 86.1957 1208.8 85.9414 1209.11 85.9414H1211.23C1211.54 85.9414 1211.79 86.1957 1211.79 86.5039V88.6289C1211.79 88.9371 1211.54 89.1914 1211.23 89.1914ZM1211.23 94.5039H1209.11C1208.8 94.5039 1208.54 94.2496 1208.54 93.9414V91.8164C1208.54 91.5082 1208.8 91.2539 1209.11 91.2539H1211.23C1211.54 91.2539 1211.79 91.5082 1211.79 91.8164V93.9414C1211.79 94.2496 1211.54 94.5039 1211.23 94.5039ZM1211.23 83.8789H1209.11C1208.8 83.8789 1208.54 83.6246 1208.54 83.3164V81.1914C1208.54 80.8832 1208.8 80.6289 1209.11 80.6289H1211.23C1211.54 80.6289 1211.79 80.8832 1211.79 81.1914V83.3164C1211.79 83.6246 1211.54 83.8789 1211.23 83.8789ZM1225.04 89.1914H1214.42C1214.11 89.1914 1213.86 88.9371 1213.86 88.6289V86.5039C1213.86 86.1957 1214.11 85.9414 1214.42 85.9414H1225.04C1225.35 85.9414 1225.61 86.1957 1225.61 86.5039V88.6289C1225.61 88.9371 1225.35 89.1914 1225.04 89.1914ZM1225.04 94.5039H1214.42C1214.11 94.5039 1213.86 94.2496 1213.86 93.9414V91.8164C1213.86 91.5082 1214.11 91.2539 1214.42 91.2539H1225.04C1225.35 91.2539 1225.61 91.5082 1225.61 91.8164V93.9414C1225.61 94.2496 1225.35 94.5039 1225.04 94.5039ZM1213.86 83.3164V81.1914C1213.86 80.8832 1214.11 80.6289 1214.42 80.6289H1225.04C1225.35 80.6289 1225.61 80.8832 1225.61 81.1914V83.3164C1225.61 83.6246 1225.35 83.8789 1225.04 83.8789H1214.42C1214.11 83.8789 1213.86 83.6246 1213.86 83.3164Z" stroke="#363A45"/>
<circle cx="1224.51" cy="92.3477" r="3.89803" fill="#00C65E" stroke="#00C65E" stroke-width="1.76645"/>
<path fill-rule="evenodd" clip-rule="evenodd" d="M1224.51 89.9023C1224.35 89.9023 1224.21 90.0361 1224.21 90.2012V92.0488H1222.37C1222.2 92.0488 1222.07 92.1826 1222.07 92.3477C1222.07 92.5127 1222.2 92.6465 1222.37 92.6465H1224.21V94.4941C1224.21 94.6591 1224.35 94.7929 1224.51 94.7929C1224.68 94.7929 1224.81 94.6591 1224.81 94.4941V92.6465H1226.66C1226.82 92.6465 1226.96 92.5127 1226.96 92.3477C1226.96 92.1826 1226.82 92.0488 1226.66 92.0488H1224.81V90.2012C1224.81 90.0361 1224.68 89.9023 1224.51 89.9023Z" fill="white"/>
<g clip-path="url(#clip2_1457_627)">
<path d="M1258.68 82.9589L1259.01 83.477L1259.35 82.9591C1260.86 80.6226 1262.99 80.151 1264.72 80.8146C1266.47 81.4879 1267.89 83.3602 1267.89 85.8895C1267.89 86.7803 1267.42 87.8551 1266.63 89.0168C1265.84 90.1666 1264.78 91.3469 1263.67 92.4382C1262.57 93.5276 1261.45 94.5188 1260.54 95.2911C1260.22 95.5686 1259.92 95.8167 1259.67 96.0316C1259.57 96.1162 1259.47 96.1956 1259.39 96.2697C1259.25 96.3882 1259.12 96.4959 1259.01 96.5893C1258.9 96.4941 1258.77 96.3848 1258.62 96.2651C1258.49 96.1621 1258.35 96.0497 1258.2 95.9279C1257.97 95.737 1257.7 95.5229 1257.41 95.2856C1256.46 94.5128 1255.28 93.5213 1254.13 92.4314C1252.97 91.3398 1251.85 90.1591 1251.02 89.0091C1250.19 87.846 1249.69 86.7741 1249.69 85.8895C1249.69 83.3551 1251.21 81.4768 1253.08 80.8021C1254.94 80.1341 1257.17 80.6317 1258.68 82.9589Z" stroke="#363A45" stroke-width="0.8"/>
</g>
<path fill-rule="evenodd" clip-rule="evenodd" d="M1288.72 80.1543C1288.5 80.1543 1288.32 80.3334 1288.32 80.5543C1288.32 80.7752 1288.5 80.9543 1288.72 80.9543H1289.23C1289.95 80.9543 1290.58 81.4324 1290.77 82.1239L1293.02 90.1513C1293.02 90.168 1293.03 90.1841 1293.03 90.1996L1293.28 91.1255C1293.45 91.7356 1294 92.1592 1294.63 92.1592H1302.3C1302.93 92.1592 1303.49 91.7356 1303.65 91.1255L1305.24 85.2694C1305.48 84.3793 1304.81 83.5031 1303.89 83.5031H1291.99L1291.54 81.9086C1291.25 80.8715 1290.31 80.1543 1289.23 80.1543H1288.72ZM1294.06 90.9162L1292.26 84.3031H1303.89C1304.28 84.3031 1304.57 84.6786 1304.47 85.0601L1302.88 90.9162C1302.81 91.1776 1302.57 91.3592 1302.3 91.3592H1294.63C1294.36 91.3592 1294.13 91.1776 1294.06 90.9162Z" fill="#363A45"/>
<path d="M1297 95.3061C1297 96.0921 1296.36 96.7299 1295.57 96.7299C1294.78 96.7299 1294.15 96.0921 1294.15 95.3061C1294.15 94.5202 1294.78 93.8824 1295.57 93.8824C1296.36 93.8824 1297 94.5202 1297 95.3061Z" stroke="#363A45" stroke-width="0.8"/>
<path d="M1302.79 95.3061C1302.79 96.0921 1302.15 96.7299 1301.36 96.7299C1300.58 96.7299 1299.94 96.0921 1299.94 95.3061C1299.94 94.5202 1300.58 93.8824 1301.36 93.8824C1302.15 93.8824 1302.79 94.5202 1302.79 95.3061Z" stroke="#363A45" stroke-width="0.8"/>
<path d="M-0.00195312 0.623047H1440V63.6243H-0.00195312V0.623047Z" fill="white"/>
<rect x="-0.00195312" y="62.1289" width="1440" height="1.5" fill="#DADCDC"/>
<rect opacity="0.3" x="549.992" y="0.822266" width="205.003" height="62.9199" fill="#00C65E"/>
<rect x="549.992" y="61.7422" width="205.003" height="2" fill="#00C65E"/>
<rect x="-0.00195312" y="0.628906" width="1440" height="6" fill="url(#paint0_linear_1457_627)"/>
<path opacity="0.6" d="M1070.08 29.7412V37.7188H1071.12V27.916H1070.21L1066.15 33.2412L1062.09 27.916H1061.18V37.7188H1062.24V29.7412L1066.15 34.916L1070.08 29.7412ZM1079.03 34.3623C1079.03 35.0869 1078.79 35.7021 1078.31 36.2012C1077.83 36.7002 1077.25 36.9463 1076.58 36.9463C1075.91 36.9463 1075.33 36.7002 1074.85 36.1943C1074.37 35.6885 1074.13 35.0801 1074.13 34.3555C1074.13 33.6309 1074.37 33.0225 1074.85 32.5234C1075.33 32.0244 1075.91 31.7715 1076.58 31.7715C1077.25 31.7715 1077.83 32.0244 1078.31 32.5234C1078.79 33.0225 1079.03 33.6377 1079.03 34.3623ZM1073.15 34.3623C1073.15 35.3467 1073.48 36.1738 1074.15 36.8506C1074.82 37.5205 1075.63 37.8623 1076.59 37.8623C1077.54 37.8623 1078.34 37.5205 1079.01 36.8506C1079.68 36.1738 1080 35.3467 1080 34.3623C1080 33.3779 1079.68 32.5508 1079.01 31.874C1078.34 31.1973 1077.54 30.8555 1076.59 30.8555C1075.63 30.8555 1074.82 31.1973 1074.15 31.874C1073.48 32.5508 1073.15 33.3779 1073.15 34.3623ZM1081.28 34.3555C1081.28 35.3262 1081.6 36.1533 1082.27 36.8369C1082.92 37.5205 1083.72 37.8555 1084.63 37.8555C1084.96 37.8555 1085.28 37.8076 1085.6 37.7051C1085.91 37.6025 1086.17 37.4932 1086.37 37.3701C1086.57 37.2471 1086.76 37.1104 1086.94 36.9531C1087.13 36.7959 1087.25 36.6865 1087.3 36.6182C1087.36 36.5498 1087.4 36.502 1087.43 36.4609L1086.73 35.832L1086.5 36.1055C1086.35 36.2969 1086.09 36.4814 1085.75 36.666C1085.39 36.8574 1085.02 36.9463 1084.63 36.9463C1083.99 36.9463 1083.43 36.7002 1082.96 36.2012C1082.49 35.7021 1082.25 35.0869 1082.25 34.3623C1082.25 33.6377 1082.49 33.0225 1082.96 32.5234C1083.43 32.0244 1083.99 31.7715 1084.63 31.7715C1084.88 31.7715 1085.13 31.8125 1085.36 31.8877C1085.6 31.9697 1085.78 32.0586 1085.93 32.1543C1086.07 32.25 1086.21 32.3662 1086.33 32.4961C1086.46 32.6328 1086.54 32.7217 1086.57 32.7695C1086.61 32.8242 1086.64 32.8584 1086.66 32.8857L1087.36 32.1885L1087.07 31.8672C1086.87 31.6484 1086.55 31.4229 1086.09 31.1973C1085.64 30.9717 1085.15 30.8555 1084.62 30.8555C1083.72 30.8555 1082.93 31.1973 1082.27 31.8809C1081.6 32.5645 1081.28 33.3848 1081.28 34.3555ZM1089.95 35.832L1091.28 34.4307L1093.66 37.7188H1094.78L1091.91 33.7266L1094.5 30.999H1093.31L1089.95 34.5674V30.999H1088.97V37.7188H1089.95V35.832ZM1096.04 30.999V37.7188H1099.26C1099.94 37.7188 1100.48 37.5479 1100.86 37.1924C1101.24 36.8438 1101.43 36.3652 1101.43 35.7568C1101.43 35.5107 1101.39 35.2852 1101.3 35.0801C1101.22 34.8818 1101.13 34.7314 1101.04 34.6221C1100.94 34.5127 1100.83 34.4238 1100.7 34.3418C1100.57 34.2598 1100.48 34.2119 1100.42 34.1914C1100.37 34.1777 1100.33 34.1641 1100.31 34.1504L1100.52 34.0205C1100.66 33.9316 1100.8 33.7676 1100.94 33.5352C1101.07 33.3027 1101.15 33.0361 1101.15 32.749C1101.15 32.2432 1100.96 31.8262 1100.59 31.498C1100.22 31.1699 1099.73 30.999 1099.12 30.999H1096.04ZM1099.26 34.5674C1099.64 34.5674 1099.94 34.6699 1100.14 34.8613C1100.35 35.0596 1100.45 35.333 1100.45 35.6885C1100.45 36.0439 1100.35 36.3242 1100.14 36.5156C1099.94 36.7139 1099.64 36.8096 1099.26 36.8096H1097.02V34.5674H1099.26ZM1100.17 32.8174C1100.17 33.4258 1099.81 33.7266 1099.12 33.7266H1097.02V31.9082H1099.12C1099.81 31.9082 1100.17 32.2158 1100.17 32.8174ZM1104.78 33.8701C1104.15 33.9795 1103.66 34.2051 1103.33 34.5469C1102.99 34.8887 1102.82 35.3398 1102.82 35.9004C1102.82 36.4131 1103.05 36.8643 1103.51 37.2607C1103.96 37.6572 1104.53 37.8555 1105.2 37.8555C1105.47 37.8555 1105.73 37.8213 1105.98 37.7461C1106.23 37.6777 1106.44 37.5957 1106.6 37.5C1106.75 37.4043 1106.89 37.3018 1107.03 37.1787C1107.16 37.0557 1107.25 36.9736 1107.29 36.9258C1107.33 36.8779 1107.35 36.8369 1107.38 36.8096V37.7188H1108.35V33.4463C1108.35 32.7148 1108.1 32.0996 1107.59 31.6006C1107.09 31.1084 1106.46 30.8555 1105.69 30.8555C1105.39 30.8555 1105.09 30.9033 1104.8 30.9922C1104.52 31.0811 1104.29 31.1836 1104.11 31.293C1103.93 31.4092 1103.76 31.5391 1103.59 31.6826C1103.43 31.8262 1103.33 31.9287 1103.28 31.9834C1103.23 32.0381 1103.2 32.0859 1103.17 32.1201L1103.8 32.749L1104.01 32.5098C1104.15 32.3457 1104.37 32.1816 1104.69 32.0176C1105 31.8535 1105.34 31.7715 1105.69 31.7715C1106.19 31.7715 1106.59 31.9287 1106.9 32.2363C1107.22 32.5508 1107.38 32.9541 1107.38 33.4463L1104.78 33.8701ZM1105.2 36.9463C1104.76 36.9463 1104.42 36.8506 1104.17 36.6523C1103.92 36.4541 1103.8 36.2012 1103.8 35.9004C1103.8 35.2715 1104.22 34.875 1105.06 34.7109L1107.38 34.2871V34.7109C1107.38 35.374 1107.17 35.9141 1106.76 36.3242C1106.35 36.7412 1105.83 36.9463 1105.2 36.9463Z" fill="#363A45"/>
<path fill-rule="evenodd" clip-rule="evenodd" d="M1122.98 37.4378L1119.15 33.744C1118.89 33.489 1118.89 33.0755 1119.15 32.8205C1119.42 32.5655 1119.85 32.5655 1120.11 32.8205L1123.46 36.0526L1126.8 32.8202C1127.07 32.5651 1127.49 32.5652 1127.76 32.8202C1128.02 33.0752 1128.02 33.4887 1127.76 33.7437L1123.95 37.4228C1123.94 37.428 1123.94 37.4328 1123.93 37.4378C1123.7 37.6606 1123.35 37.6887 1123.08 37.5215C1123.05 37.4975 1123.01 37.4697 1122.98 37.4378Z" fill="#363A45"/>
<path d="M1043.64 37.877C1043.96 38.8265 1044.56 38.86 1044.98 37.9549L1049.79 27.6589C1050.21 26.7519 1049.82 26.3609 1048.91 26.7836L1038.61 31.5881C1037.71 32.0108 1037.74 32.61 1038.69 32.9268L1042.4 34.1641L1043.64 37.877Z" fill="#00C65E"/>
<path d="M1184.55 37.7188C1185.45 37.7188 1186.2 37.4385 1186.8 36.8711C1187.41 36.3105 1187.71 35.6338 1187.71 34.8477C1187.71 34.5537 1187.65 34.2666 1187.54 33.9932C1187.43 33.7197 1187.32 33.4941 1187.19 33.3232C1187.07 33.1455 1186.92 32.9883 1186.75 32.8447C1186.57 32.7012 1186.46 32.6055 1186.39 32.5645C1186.32 32.5234 1186.27 32.4893 1186.24 32.4756L1186.49 32.2773C1186.65 32.1475 1186.8 31.9219 1186.97 31.5938C1187.13 31.2656 1187.21 30.9033 1187.21 30.5137C1187.21 29.8301 1186.93 29.2285 1186.37 28.709C1185.81 28.1826 1185.14 27.9229 1184.34 27.9229H1180.36V37.7256L1184.55 37.7188ZM1181.9 36.3926V33.1729H1184.55C1185.01 33.1729 1185.4 33.3232 1185.7 33.6377C1186.01 33.9453 1186.17 34.3281 1186.17 34.7861C1186.17 35.2373 1186.01 35.6201 1185.7 35.9277C1185.39 36.2354 1185.01 36.3926 1184.55 36.3926H1181.9ZM1184.34 29.2559C1184.73 29.2559 1185.04 29.3789 1185.29 29.6318C1185.55 29.8848 1185.68 30.1992 1185.68 30.582C1185.68 30.9648 1185.55 31.2793 1185.29 31.5322C1185.04 31.7852 1184.73 31.915 1184.34 31.915H1181.9V29.2559H1184.34ZM1192.81 34.2188L1195.12 30.999H1193.51L1191.97 33.166L1190.43 30.999H1188.82L1191.13 34.2188L1188.61 37.7188H1190.22L1191.97 35.2715L1193.72 37.7188H1195.33L1192.81 34.2188ZM1201.63 34.3623C1201.63 34.9912 1201.42 35.5176 1201.01 35.9482C1200.59 36.3857 1200.1 36.5977 1199.53 36.5977C1198.96 36.5977 1198.47 36.3857 1198.05 35.9482C1197.63 35.5176 1197.43 34.9912 1197.43 34.3623C1197.43 33.7334 1197.63 33.207 1198.05 32.7695C1198.47 32.3389 1198.96 32.1201 1199.53 32.1201C1200.1 32.1201 1200.59 32.3389 1201.01 32.7695C1201.42 33.207 1201.63 33.7334 1201.63 34.3623ZM1196.03 34.3623C1196.03 35.3057 1196.37 36.1191 1197.07 36.8164C1197.77 37.5137 1198.59 37.8623 1199.53 37.8623C1200.48 37.8623 1201.29 37.5137 1201.99 36.8164C1202.68 36.1191 1203.03 35.3057 1203.03 34.3623C1203.03 33.4189 1202.68 32.5986 1201.99 31.9014C1201.29 31.2041 1200.48 30.8555 1199.53 30.8555C1198.59 30.8555 1197.77 31.2041 1197.07 31.9014C1196.37 32.5986 1196.03 33.4189 1196.03 34.3623ZM1203.59 36.4609V39.4004H1204.99V37.7188H1209.68V39.4004H1211.08V36.4609H1210.1V30.999H1205.2V32.9609C1205.2 33.4121 1205.16 33.8359 1205.08 34.2393C1204.99 34.6494 1204.91 34.9775 1204.81 35.2236C1204.71 35.4697 1204.6 35.7021 1204.47 35.9141C1204.34 36.1328 1204.25 36.2695 1204.19 36.3311C1204.14 36.3926 1204.11 36.4336 1204.08 36.4609H1203.59ZM1206.6 32.2568H1208.7V36.4609H1205.48L1205.6 36.3174C1205.66 36.2354 1205.76 36.0986 1205.87 35.9072C1205.98 35.7158 1206.09 35.4902 1206.2 35.2305C1206.31 34.9707 1206.41 34.6357 1206.48 34.2324C1206.56 33.8359 1206.59 33.4121 1206.59 32.9609L1206.6 32.2568ZM1217.46 27.7793H1216.2L1211.99 40.6582H1213.26L1217.46 27.7793ZM1225.16 37.8555C1226.05 37.8555 1226.81 37.5205 1227.47 36.8369C1228.13 36.1533 1228.46 35.3262 1228.46 34.3555C1228.46 33.3848 1228.13 32.5645 1227.47 31.8809C1226.81 31.1973 1226.05 30.8555 1225.16 30.8555C1224.76 30.8555 1224.38 30.9443 1224 31.1084C1223.62 31.2793 1223.38 31.416 1223.26 31.5186C1223.14 31.6279 1223.05 31.71 1222.99 31.7715V30.999H1221.59V40.6582H1222.99V36.9463L1223.09 37.0488C1223.14 37.1035 1223.24 37.1787 1223.37 37.2744C1223.5 37.3701 1223.65 37.459 1223.82 37.5479C1223.98 37.6367 1224.19 37.7119 1224.43 37.7666C1224.66 37.8281 1224.91 37.8555 1225.16 37.8555ZM1225.02 32.1201C1225.56 32.1201 1226.03 32.3389 1226.44 32.7764C1226.85 33.2139 1227.05 33.7471 1227.05 34.3623C1227.05 34.9775 1226.85 35.5039 1226.44 35.9414C1226.03 36.3789 1225.56 36.5977 1225.02 36.5977C1224.49 36.5977 1224.02 36.3789 1223.61 35.9414C1223.2 35.5039 1222.99 34.9775 1222.99 34.3623C1222.99 33.7471 1223.2 33.2139 1223.61 32.7764C1224.02 32.3389 1224.49 32.1201 1225.02 32.1201ZM1236.21 34.8477L1236.29 34.1504C1236.29 33.207 1235.97 32.4277 1235.35 31.7988C1234.72 31.1699 1233.94 30.8555 1232.99 30.8555C1232.05 30.8555 1231.24 31.1973 1230.57 31.8672C1229.9 32.5371 1229.56 33.3438 1229.56 34.2871C1229.56 35.2715 1229.91 36.1123 1230.6 36.8096C1231.29 37.5068 1232.11 37.8555 1233.06 37.8555C1233.42 37.8555 1233.77 37.8076 1234.1 37.7051C1234.44 37.6025 1234.71 37.4932 1234.92 37.3701C1235.13 37.2471 1235.33 37.1104 1235.51 36.9531C1235.7 36.7959 1235.82 36.6865 1235.88 36.6182C1235.93 36.5498 1235.97 36.502 1236 36.4609L1235.09 35.5518L1234.88 35.8115C1234.74 35.9824 1234.5 36.1533 1234.16 36.3311C1233.82 36.5088 1233.46 36.5977 1233.06 36.5977C1232.52 36.5977 1232.06 36.4268 1231.66 36.0781C1231.26 35.7363 1231.03 35.3262 1230.96 34.8477H1236.21ZM1232.99 32.0518C1233.51 32.0518 1233.93 32.2021 1234.27 32.5029C1234.61 32.8037 1234.83 33.1865 1234.91 33.6582H1231.02C1231.14 33.1865 1231.37 32.8037 1231.72 32.5029C1232.06 32.2021 1232.48 32.0518 1232.99 32.0518ZM1242.51 30.999H1237.82V37.7188H1239.22V32.2568H1242.51V30.999ZM1248.53 30.999L1245.03 35.4082V30.999H1243.63V37.7188H1244.89L1248.39 33.3096V37.7188H1249.79V30.999H1248.53ZM1251.33 34.3623C1251.33 35.3057 1251.68 36.1191 1252.37 36.8164C1253.07 37.5137 1253.89 37.8623 1254.83 37.8623C1255.16 37.8623 1255.48 37.8076 1255.8 37.7051C1256.11 37.6025 1256.37 37.4932 1256.58 37.3701C1256.78 37.2471 1256.97 37.1104 1257.15 36.9531C1257.33 36.7959 1257.45 36.6865 1257.51 36.6182C1257.56 36.5498 1257.6 36.502 1257.63 36.4678L1256.72 35.5586L1256.51 35.8184C1256.37 35.9824 1256.15 36.1602 1255.83 36.3379C1255.52 36.5156 1255.19 36.6045 1254.83 36.6045C1254.26 36.6045 1253.77 36.3857 1253.35 35.9551C1252.93 35.5176 1252.73 34.9912 1252.73 34.3623C1252.73 33.7334 1252.93 33.207 1253.35 32.7764C1253.77 32.3389 1254.26 32.127 1254.83 32.127C1255.19 32.127 1255.52 32.2158 1255.83 32.4004C1256.15 32.5781 1256.35 32.7217 1256.44 32.8311C1256.54 32.9404 1256.61 33.0293 1256.65 33.1045L1257.56 32.1953L1257.27 31.874C1257.07 31.6484 1256.75 31.4229 1256.3 31.1973C1255.85 30.9717 1255.35 30.8623 1254.83 30.8623C1253.89 30.8623 1253.07 31.2109 1252.37 31.9082C1251.68 32.6055 1251.33 33.4189 1251.33 34.3623ZM1258.33 32.2568H1260.64V37.7188H1262.03V32.2568H1264.34V30.999H1258.33V32.2568ZM1269.17 37.8555C1270.06 37.8555 1270.82 37.5205 1271.48 36.8369C1272.14 36.1533 1272.46 35.3262 1272.46 34.3555C1272.46 33.3848 1272.14 32.5645 1271.48 31.8809C1270.82 31.1973 1270.06 30.8555 1269.17 30.8555C1268.77 30.8555 1268.39 30.9443 1268.01 31.1084C1267.63 31.2793 1267.39 31.416 1267.27 31.5186C1267.15 31.6279 1267.06 31.71 1267 31.7715V30.999H1265.6V40.6582H1267V36.9463L1267.1 37.0488C1267.15 37.1035 1267.25 37.1787 1267.38 37.2744C1267.51 37.3701 1267.66 37.459 1267.83 37.5479C1267.99 37.6367 1268.2 37.7119 1268.44 37.7666C1268.67 37.8281 1268.92 37.8555 1269.17 37.8555ZM1269.03 32.1201C1269.57 32.1201 1270.04 32.3389 1270.45 32.7764C1270.86 33.2139 1271.06 33.7471 1271.06 34.3623C1271.06 34.9775 1270.86 35.5039 1270.45 35.9414C1270.04 36.3789 1269.57 36.5977 1269.03 36.5977C1268.5 36.5977 1268.03 36.3789 1267.62 35.9414C1267.21 35.5039 1267 34.9775 1267 34.3623C1267 33.7471 1267.21 33.2139 1267.62 32.7764C1268.03 32.3389 1268.5 32.1201 1269.03 32.1201ZM1279.39 37.7188V33.3779C1279.39 32.667 1279.12 32.0723 1278.6 31.5869C1278.08 31.1016 1277.41 30.8555 1276.59 30.8555C1276.26 30.8555 1275.94 30.9033 1275.63 30.9922C1275.32 31.0811 1275.08 31.1836 1274.89 31.293C1274.7 31.4092 1274.52 31.5391 1274.36 31.6826C1274.19 31.8262 1274.08 31.9287 1274.04 31.9834C1273.99 32.0381 1273.96 32.0859 1273.93 32.1201L1274.84 33.0293L1275.02 32.79C1275.13 32.6396 1275.33 32.4961 1275.62 32.3457C1275.9 32.1953 1276.23 32.1201 1276.59 32.1201C1277 32.1201 1277.33 32.2432 1277.59 32.4824C1277.85 32.7285 1277.99 33.0225 1277.99 33.3779L1275.53 33.8018C1274.93 33.9043 1274.45 34.1436 1274.1 34.5127C1273.75 34.8887 1273.58 35.3535 1273.58 35.9072C1273.58 36.4131 1273.8 36.8711 1274.26 37.2676C1274.71 37.6641 1275.27 37.8623 1275.96 37.8623C1276.19 37.8623 1276.42 37.8281 1276.65 37.7734C1276.87 37.7119 1277.07 37.6436 1277.22 37.5684C1277.37 37.4932 1277.5 37.4111 1277.63 37.3154C1277.76 37.2197 1277.85 37.1582 1277.89 37.1172C1277.93 37.0762 1277.97 37.042 1277.99 37.0283V37.7256L1279.39 37.7188ZM1276.17 36.6045C1275.8 36.6045 1275.51 36.5156 1275.29 36.3516C1275.08 36.1807 1274.97 35.9824 1274.97 35.7568C1274.97 35.5176 1275.05 35.3193 1275.21 35.1621C1275.36 34.998 1275.56 34.8955 1275.81 34.8545L1277.99 34.5059V34.6426C1277.99 35.2715 1277.82 35.75 1277.5 36.0918C1277.18 36.4336 1276.74 36.6045 1276.17 36.6045ZM1281.35 37.7188H1286.88V39.4004H1288.28V36.4609H1287.31V30.999H1285.9V36.4609H1282.75V30.999H1281.35V37.7188ZM1294.58 30.999L1291.08 35.4082V30.999H1289.68V37.7188H1290.94L1294.44 33.3096V37.7188H1295.84V30.999H1294.58ZM1300.04 30.999C1299.28 30.999 1298.67 31.2178 1298.21 31.6553C1297.74 32.0928 1297.51 32.6396 1297.51 33.3096C1297.51 33.6104 1297.57 33.8838 1297.66 34.1436C1297.76 34.4033 1297.87 34.6016 1297.98 34.7451C1298.1 34.8955 1298.23 35.0254 1298.38 35.1348C1298.53 35.2441 1298.64 35.3193 1298.7 35.3467C1298.76 35.3809 1298.81 35.4014 1298.84 35.4082L1297.38 37.7188H1298.91L1300.25 35.6201H1301.72V37.7188H1303.11V30.999H1300.04ZM1301.72 32.1885V34.4307H1300.03C1299.72 34.4307 1299.45 34.3281 1299.23 34.1094C1299.02 33.8975 1298.91 33.6309 1298.91 33.3096C1298.91 32.9951 1299.02 32.7285 1299.23 32.5098C1299.45 32.2979 1299.72 32.1885 1300.03 32.1885H1301.72Z" fill="#363A45"/>
<path fill-rule="evenodd" clip-rule="evenodd" d="M1157.96 38.2188C1157.96 38.2188 1156.96 38.2188 1156.96 37.2188C1156.96 36.2188 1157.96 33.2188 1162.96 33.2188C1167.96 33.2188 1168.96 36.2188 1168.96 37.2188C1168.96 38.2188 1167.96 38.2188 1167.96 38.2188H1157.96ZM1162.96 32.2188C1163.75 32.2188 1164.51 31.9027 1165.08 31.3401C1165.64 30.7775 1165.96 30.0144 1165.96 29.2188C1165.96 28.4231 1165.64 27.66 1165.08 27.0974C1164.51 26.5348 1163.75 26.2188 1162.96 26.2188C1162.16 26.2188 1161.4 26.5348 1160.83 27.0974C1160.27 27.66 1159.96 28.4231 1159.96 29.2188C1159.96 30.0144 1160.27 30.7775 1160.83 31.3401C1161.4 31.9027 1162.16 32.2188 1162.96 32.2188Z" fill="#00C65E"/>
<path d="M134.999 27.4604H142.099V43.662H145.152C152.001 43.662 155.424 40.3343 155.421 33.6788C155.421 27.1594 152.243 23.9008 145.887 23.9032H144.604V18.6289L145.521 18.6289C150.989 18.6289 155.236 19.9409 158.265 22.5649C161.293 25.189 162.806 28.8423 162.803 33.525C162.803 38.5106 161.235 42.3274 158.1 44.9752C154.965 47.6231 150.426 48.9554 144.485 48.9721H134.999V27.4604Z" fill="#00C65E"/>
<path d="M142.103 18.6289H134.999V24.9588H142.103V18.6289Z" fill="#00C65E"/>
<path d="M169.595 30.9766H167.161V39.8008H169.595V30.9766ZM169.771 28.4629C169.771 28.0586 169.639 27.7246 169.384 27.4785C169.121 27.2324 168.769 27.1094 168.33 27.1094C167.925 27.1094 167.6 27.2324 167.354 27.4785C167.108 27.7246 166.985 28.0586 166.985 28.4629C166.985 28.8672 167.099 29.1924 167.345 29.4385C167.591 29.6846 167.917 29.8076 168.33 29.8076C168.769 29.8076 169.121 29.6846 169.384 29.4385C169.639 29.1924 169.771 28.8672 169.771 28.4629ZM174.552 27.1973H172.118V39.8008H174.552V27.1973ZM179.052 40.3369C178.762 41.0049 178.252 41.3301 177.523 41.3301C177.163 41.3301 176.864 41.2773 176.626 41.1543V43.3076L176.802 43.3691C176.925 43.4219 177.11 43.4658 177.374 43.5098C177.628 43.5625 177.892 43.5801 178.156 43.5801C179.632 43.5801 180.766 42.499 181.575 40.3369L185.082 30.9766H182.568L180.494 36.8301L178.428 30.9766H175.906L179.325 39.7129L179.052 40.3369ZM184.976 38.6318C184.976 38.9922 185.117 39.3086 185.398 39.5723C185.679 39.8447 186.013 39.9766 186.417 39.9766C186.813 39.9766 187.156 39.8447 187.437 39.5723C187.718 39.3086 187.859 38.9922 187.859 38.6318C187.859 38.2715 187.718 37.9551 187.437 37.6826C187.156 37.4189 186.813 37.2783 186.417 37.2783C186.013 37.2783 185.679 37.4189 185.398 37.6826C185.117 37.9551 184.976 38.2715 184.976 38.6318ZM195.057 30.8887H194.697C194.213 30.8887 193.756 31.0029 193.317 31.2139C192.877 31.4336 192.596 31.6094 192.464 31.7412C192.341 31.873 192.236 31.9785 192.166 32.0576V30.9766H189.74V39.8008H192.166V35.5732C192.166 34.8174 192.359 34.2373 192.728 33.833C193.097 33.4287 193.607 33.2266 194.24 33.2266C194.6 33.2354 194.873 33.2705 195.048 33.332L195.057 30.8887ZM202.352 39.8008H204.778V30.9766H202.352V35.6611C202.352 36.3291 202.185 36.8389 201.86 37.1904C201.535 37.5508 201.095 37.7266 200.55 37.7266C200.058 37.7266 199.645 37.5684 199.32 37.2432C198.995 36.9268 198.836 36.5137 198.836 36.0215V30.9766H196.411V36.2588C196.411 37.3838 196.727 38.2891 197.36 38.9658C197.993 39.6426 198.819 39.9766 199.83 39.9766C200.304 39.9766 200.761 39.8799 201.201 39.6865C201.64 39.4932 201.921 39.335 202.053 39.2119C202.176 39.0889 202.282 38.9922 202.352 38.9043V39.8008Z" fill="#00C65E"/>
<path d="M246.999 36.3057V39.8057H248.537V37.707H255.256V39.8057H256.801V36.3057H255.612V27.9043H249.241V30.8438C249.241 31.5752 249.179 32.2656 249.056 32.9219C248.933 33.5781 248.796 34.0908 248.646 34.4736C248.496 34.8496 248.332 35.1982 248.14 35.5127C247.949 35.8271 247.812 36.0322 247.737 36.1211C247.662 36.21 247.6 36.2715 247.559 36.3057H246.999ZM250.779 30.8438V29.3057H254.067V36.3057H249.097L249.268 36.1279C249.384 36.0049 249.528 35.7998 249.692 35.5059C249.856 35.2119 250.02 34.8633 250.184 34.4668C250.348 34.0703 250.485 33.5508 250.601 32.9082C250.717 32.2656 250.779 31.5752 250.779 30.8438ZM263.316 34.3506C263.316 34.9795 263.104 35.5059 262.694 35.9365C262.277 36.374 261.785 36.5859 261.217 36.5859C260.643 36.5859 260.151 36.374 259.734 35.9365C259.317 35.5059 259.112 34.9795 259.112 34.3506C259.112 33.7217 259.317 33.1953 259.734 32.7578C260.151 32.3271 260.643 32.1084 261.217 32.1084C261.785 32.1084 262.277 32.3271 262.694 32.7578C263.104 33.1953 263.316 33.7217 263.316 34.3506ZM257.717 34.3506C257.717 35.2939 258.059 36.1074 258.756 36.8047C259.454 37.502 260.274 37.8506 261.217 37.8506C262.161 37.8506 262.974 37.502 263.671 36.8047C264.369 36.1074 264.717 35.2939 264.717 34.3506C264.717 33.4072 264.369 32.5869 263.671 31.8896C262.974 31.1924 262.161 30.8438 261.217 30.8438C260.274 30.8438 259.454 31.1924 258.756 31.8896C258.059 32.5869 257.717 33.4072 257.717 34.3506ZM265.838 34.3506C265.838 35.2939 266.18 36.1074 266.877 36.8047C267.575 37.502 268.395 37.8506 269.338 37.8506C269.66 37.8506 269.981 37.7959 270.302 37.6934C270.617 37.5908 270.876 37.4814 271.082 37.3584C271.28 37.2354 271.471 37.0986 271.656 36.9414C271.833 36.7842 271.957 36.6748 272.011 36.6064C272.066 36.5381 272.107 36.4902 272.134 36.4561L271.225 35.5469L271.013 35.8066C270.876 35.9707 270.651 36.1484 270.336 36.3262C270.022 36.5039 269.694 36.5928 269.338 36.5928C268.764 36.5928 268.272 36.374 267.855 35.9434C267.438 35.5059 267.233 34.9795 267.233 34.3506C267.233 33.7217 267.438 33.1953 267.855 32.7646C268.272 32.3271 268.764 32.1152 269.338 32.1152C269.694 32.1152 270.022 32.2041 270.336 32.3887C270.651 32.5664 270.849 32.71 270.945 32.8193C271.041 32.9287 271.109 33.0176 271.157 33.0928L272.066 32.1836L271.772 31.8623C271.574 31.6367 271.252 31.4111 270.801 31.1855C270.35 30.96 269.858 30.8506 269.338 30.8506C268.395 30.8506 267.575 31.1992 266.877 31.8965C266.18 32.5938 265.838 33.4072 265.838 34.3506ZM279.483 30.9873H277.801L274.93 33.9951V30.9873H273.529V37.707H274.93V35.8203L275.983 34.6992L278.15 37.707H279.688L276.892 33.79L279.483 30.9873ZM286.196 37.707V33.3662C286.196 32.6553 285.929 32.0605 285.41 31.5752C284.883 31.0898 284.213 30.8438 283.393 30.8438C283.065 30.8438 282.744 30.8916 282.436 30.9805C282.128 31.0693 281.882 31.1719 281.698 31.2812C281.506 31.3975 281.329 31.5273 281.165 31.6709C281 31.8145 280.891 31.917 280.843 31.9717C280.795 32.0264 280.761 32.0742 280.734 32.1084L281.643 33.0176L281.828 32.7783C281.937 32.6279 282.135 32.4844 282.422 32.334C282.709 32.1836 283.038 32.1084 283.393 32.1084C283.803 32.1084 284.138 32.2314 284.398 32.4707C284.658 32.7168 284.794 33.0107 284.794 33.3662L282.34 33.79C281.732 33.8926 281.253 34.1318 280.905 34.501C280.556 34.877 280.385 35.3418 280.385 35.8955C280.385 36.4014 280.611 36.8594 281.062 37.2559C281.513 37.6523 282.081 37.8506 282.764 37.8506C282.997 37.8506 283.222 37.8164 283.455 37.7617C283.68 37.7002 283.872 37.6318 284.022 37.5566C284.172 37.4814 284.309 37.3994 284.439 37.3037C284.569 37.208 284.658 37.1465 284.699 37.1055C284.74 37.0645 284.774 37.0303 284.794 37.0166V37.7139L286.196 37.707ZM282.976 36.5928C282.607 36.5928 282.32 36.5039 282.101 36.3398C281.882 36.1689 281.78 35.9707 281.78 35.7451C281.78 35.5059 281.855 35.3076 282.012 35.1504C282.163 34.9863 282.368 34.8838 282.621 34.8428L284.794 34.4941V34.6309C284.794 35.2598 284.63 35.7383 284.309 36.0801C283.988 36.4219 283.543 36.5928 282.976 36.5928ZM296.142 34.3506C296.142 34.9795 295.93 35.5059 295.52 35.9365C295.103 36.374 294.611 36.5859 294.043 36.5859C293.469 36.5859 292.977 36.374 292.56 35.9365C292.143 35.5059 291.938 34.9795 291.938 34.3506C291.938 33.7217 292.143 33.1953 292.56 32.7578C292.977 32.3271 293.469 32.1084 294.043 32.1084C294.611 32.1084 295.103 32.3271 295.52 32.7578C295.93 33.1953 296.142 33.7217 296.142 34.3506ZM290.543 34.3506C290.543 35.2939 290.885 36.1074 291.583 36.8047C292.28 37.502 293.1 37.8506 294.043 37.8506C294.987 37.8506 295.8 37.502 296.498 36.8047C297.195 36.1074 297.543 35.2939 297.543 34.3506C297.543 33.4072 297.195 32.5869 296.498 31.8896C295.8 31.1924 294.987 30.8438 294.043 30.8438C293.1 30.8438 292.28 31.1924 291.583 31.8896C290.885 32.5869 290.543 33.4072 290.543 34.3506ZM305.801 34.4189C305.801 33.4893 305.473 32.6826 304.824 32.0059C304.174 31.3291 303.429 30.9873 302.582 30.9873C302.322 30.9873 302.062 31.0283 301.809 31.1035C301.556 31.1787 301.351 31.2607 301.187 31.3564C301.023 31.4521 300.873 31.5547 300.729 31.6777C300.579 31.8008 300.483 31.8828 300.435 31.9307C300.387 31.9785 300.353 32.0195 300.339 32.0469C300.408 31.3223 300.633 30.748 301.03 30.3242C301.419 29.8936 301.939 29.627 302.582 29.5244C303.327 29.4014 303.942 29.251 304.427 29.0732C304.913 28.8955 305.2 28.7725 305.282 28.7041C305.364 28.6357 305.425 28.5811 305.453 28.5469L304.824 27.4941L304.598 27.6309C304.448 27.7129 304.174 27.8223 303.778 27.9521C303.381 28.0752 302.937 28.1846 302.438 28.2666C301.317 28.4512 300.456 28.9502 299.847 29.7705C299.246 30.584 298.938 31.8076 298.938 33.4414C298.938 34.8701 299.259 35.9639 299.902 36.7158C300.544 37.4678 301.385 37.8438 302.438 37.8438C303.354 37.8438 304.14 37.5088 304.803 36.8389C305.466 36.1689 305.801 35.3623 305.801 34.4189ZM300.476 34.4189C300.476 33.8037 300.674 33.291 301.057 32.874C301.447 32.457 301.905 32.2451 302.438 32.2451C302.971 32.2451 303.429 32.457 303.819 32.874C304.202 33.291 304.4 33.8037 304.4 34.4189C304.4 35.0342 304.202 35.5537 303.819 35.9639C303.429 36.3809 302.971 36.5859 302.438 36.5859C301.905 36.5859 301.447 36.3809 301.057 35.9639C300.674 35.5537 300.476 35.0342 300.476 34.4189ZM313.567 35.4033C313.567 34.7334 313.334 34.1797 312.87 33.7422C312.405 33.3047 311.796 33.0859 311.038 33.0859H309.568V30.9873H306.492V32.2451H308.173V37.707H311.038C311.796 37.707 312.405 37.4951 312.87 37.0576C313.334 36.627 313.567 36.0732 313.567 35.4033ZM309.575 36.5244V34.2822H311.044C311.359 34.2822 311.625 34.3848 311.844 34.6035C312.056 34.8154 312.166 35.082 312.166 35.4033C312.166 35.7178 312.056 35.9844 311.844 36.2031C311.625 36.415 311.359 36.5244 311.044 36.5244H309.575ZM317.347 30.9873C316.588 30.9873 315.98 31.2061 315.515 31.6436C315.05 32.0811 314.818 32.6279 314.818 33.2979C314.818 33.5986 314.873 33.8721 314.968 34.1318C315.064 34.3916 315.173 34.5898 315.29 34.7334C315.406 34.8838 315.536 35.0137 315.686 35.123C315.836 35.2324 315.946 35.3076 316.007 35.335C316.069 35.3691 316.117 35.3896 316.151 35.3965L314.681 37.707H316.219L317.552 35.6084H319.022V37.707H320.417V30.9873H317.347ZM319.022 32.1768V34.4189H317.34C317.026 34.4189 316.759 34.3164 316.541 34.0977C316.329 33.8857 316.219 33.6191 316.219 33.2979C316.219 32.9834 316.329 32.7168 316.541 32.498C316.759 32.2861 317.026 32.1768 317.34 32.1768H319.022ZM322.378 30.9873V37.707H325.742C326.453 37.707 327.02 37.5293 327.43 37.1602C327.84 36.7979 328.052 36.3262 328.052 35.7451C328.052 35.5264 328.011 35.3145 327.929 35.123C327.847 34.9316 327.758 34.7812 327.663 34.6719C327.567 34.5625 327.451 34.46 327.321 34.3643C327.184 34.2686 327.095 34.2139 327.047 34.1865C326.993 34.166 326.958 34.1523 326.931 34.1455L327.123 34.0156C327.252 33.9199 327.382 33.7559 327.505 33.5234C327.628 33.291 327.697 33.0312 327.697 32.7441C327.697 32.2383 327.505 31.8145 327.129 31.4863C326.747 31.1582 326.241 30.9941 325.598 30.9941L322.378 30.9873ZM325.742 34.7061C326.008 34.7061 326.227 34.7949 326.398 34.9727C326.562 35.1504 326.651 35.3623 326.651 35.6152C326.651 35.8887 326.569 36.1143 326.405 36.2783C326.241 36.4424 326.015 36.5244 325.742 36.5244H323.78V34.7061H325.742ZM326.302 32.8809C326.302 33.0996 326.234 33.2705 326.111 33.3936C325.981 33.5166 325.81 33.585 325.598 33.585H323.78V32.1836H325.598C325.81 32.1836 325.981 32.2451 326.111 32.3682C326.234 32.4912 326.302 32.6621 326.302 32.8809ZM330.356 30.9873V32.9492C330.356 33.9131 330.294 34.6582 330.185 35.1914C330.076 35.7246 329.932 36.0664 329.768 36.2236C329.604 36.374 329.378 36.4561 329.091 36.4561C328.955 36.4492 328.791 36.4219 328.606 36.3809V37.7139L328.729 37.7412C328.804 37.7686 328.914 37.7891 329.05 37.8164C329.187 37.8369 329.324 37.8506 329.447 37.8506C329.946 37.8506 330.356 37.7207 330.67 37.4746C330.985 37.2217 331.245 36.7227 331.45 35.9844C331.655 35.2461 331.75 34.2344 331.75 32.9561V32.252H334.129V37.7139H335.531V30.9941L330.356 30.9873ZM343.727 34.8359L343.802 34.1387C343.802 33.1953 343.488 32.416 342.859 31.7871C342.23 31.1582 341.451 30.8438 340.507 30.8438C339.564 30.8438 338.757 31.1855 338.087 31.8555C337.417 32.5254 337.076 33.332 337.076 34.2754C337.076 35.2598 337.424 36.1006 338.115 36.7979C338.805 37.4951 339.625 37.8438 340.576 37.8438C340.931 37.8438 341.28 37.7959 341.615 37.6934C341.95 37.5908 342.223 37.4814 342.428 37.3584C342.64 37.2354 342.838 37.0986 343.023 36.9414C343.214 36.7842 343.337 36.6748 343.392 36.6064C343.447 36.5381 343.488 36.4902 343.515 36.4492L342.606 35.54L342.394 35.7998C342.257 35.9707 342.018 36.1416 341.676 36.3193C341.334 36.4971 340.972 36.5859 340.576 36.5859C340.036 36.5859 339.571 36.415 339.174 36.0664C338.778 35.7246 338.545 35.3145 338.47 34.8359H343.727ZM340.5 32.04C341.02 32.04 341.444 32.1904 341.786 32.4912C342.127 32.792 342.339 33.1748 342.421 33.6465H338.532C338.655 33.1748 338.887 32.792 339.229 32.4912C339.571 32.1904 339.995 32.04 340.5 32.04ZM346.735 34.9043H350.023V37.707H351.424V30.9873H350.023V33.6465H346.735V30.9873H345.333V37.707H346.735V34.9043ZM358.288 30.9873L354.788 35.3965V30.9873H353.386V37.707H354.644L358.144 33.2979V37.707H359.545V30.9873H358.288ZM366.409 30.9873L362.909 35.3965V30.9873H361.507V37.707H362.765L366.265 33.2979V37.707H367.667V30.9873H366.409ZM364.583 28.8887C364.303 28.8887 364.071 28.7998 363.886 28.6084C363.695 28.417 363.606 28.1846 363.606 27.9043H362.56C362.56 28.4648 362.751 28.9365 363.134 29.3057C363.517 29.6816 364.002 29.8662 364.59 29.8662C365.178 29.8662 365.664 29.6816 366.046 29.3057C366.429 28.9365 366.621 28.4648 366.621 27.9043H365.568C365.568 28.1914 365.472 28.4238 365.288 28.6084C365.096 28.7998 364.864 28.8887 364.583 28.8887Z" fill="#363A45"/>
<path d="M418.021 27.7676C416.551 27.7676 415.321 28.2598 414.33 29.2305C413.332 30.208 412.839 31.3975 412.839 32.8057C412.839 34.2139 413.332 35.4102 414.33 36.3809C415.321 37.3584 416.551 37.8438 418.021 37.8438C418.513 37.8438 418.992 37.7754 419.457 37.6387C419.921 37.502 420.304 37.3447 420.591 37.1738C420.878 36.9961 421.152 36.7979 421.412 36.5791C421.671 36.3535 421.835 36.1963 421.911 36.1074C421.986 36.0186 422.041 35.9502 422.075 35.8955L421.09 34.9111L420.981 35.082C420.899 35.1846 420.769 35.3076 420.591 35.458C420.414 35.6084 420.215 35.7588 419.983 35.9092C419.75 36.0596 419.463 36.1826 419.115 36.292C418.766 36.4014 418.397 36.4561 418.014 36.4561C416.996 36.4561 416.134 36.1006 415.43 35.3965C414.726 34.6855 414.371 33.8242 414.371 32.8125C414.371 31.7939 414.726 30.9326 415.43 30.2285C416.141 29.5244 417.002 29.1758 418.014 29.1758C418.397 29.1758 418.766 29.2236 419.108 29.333C419.45 29.4424 419.73 29.5586 419.942 29.6816C420.161 29.8047 420.359 29.9551 420.543 30.126C420.735 30.3037 420.851 30.4199 420.906 30.4883C420.96 30.5566 420.995 30.6045 421.022 30.6387L422 29.6543L421.849 29.4629C421.747 29.333 421.583 29.1758 421.357 28.9912C421.138 28.8135 420.878 28.6289 420.578 28.4375C420.277 28.2529 419.901 28.0957 419.443 27.9658C418.992 27.8359 418.513 27.7676 418.021 27.7676ZM429.772 34.8359L429.847 34.1387C429.847 33.1953 429.533 32.416 428.904 31.7871C428.275 31.1582 427.496 30.8438 426.552 30.8438C425.609 30.8438 424.802 31.1855 424.132 31.8555C423.462 32.5254 423.121 33.332 423.121 34.2754C423.121 35.2598 423.469 36.1006 424.16 36.7979C424.85 37.4951 425.67 37.8438 426.621 37.8438C426.976 37.8438 427.325 37.7959 427.66 37.6934C427.995 37.5908 428.268 37.4814 428.473 37.3584C428.685 37.2354 428.883 37.0986 429.068 36.9414C429.259 36.7842 429.382 36.6748 429.437 36.6064C429.492 36.5381 429.533 36.4902 429.56 36.4492L428.651 35.54L428.439 35.7998C428.302 35.9707 428.063 36.1416 427.721 36.3193C427.379 36.4971 427.017 36.5859 426.621 36.5859C426.081 36.5859 425.616 36.415 425.219 36.0664C424.823 35.7246 424.59 35.3145 424.515 34.8359H429.772ZM426.545 32.04C427.065 32.04 427.489 32.1904 427.831 32.4912C428.172 32.792 428.384 33.1748 428.466 33.6465H424.577C424.7 33.1748 424.932 32.792 425.274 32.4912C425.616 32.1904 426.04 32.04 426.545 32.04ZM434.947 37.8438C435.835 37.8438 436.601 37.5088 437.257 36.8252C437.914 36.1416 438.242 35.3145 438.242 34.3438C438.242 33.373 437.914 32.5527 437.257 31.8691C436.601 31.1855 435.835 30.8438 434.947 30.8438C434.55 30.8438 434.167 30.9326 433.792 31.0967C433.409 31.2676 433.163 31.4043 433.046 31.5068C432.93 31.6162 432.841 31.6982 432.78 31.7598V30.9873H431.378V40.6465H432.78V36.9346L432.875 37.0371C432.93 37.0918 433.026 37.167 433.156 37.2627C433.286 37.3584 433.436 37.4473 433.607 37.5361C433.771 37.625 433.976 37.7002 434.215 37.7549C434.448 37.8164 434.694 37.8438 434.947 37.8438ZM434.81 32.1084C435.343 32.1084 435.815 32.3271 436.225 32.7646C436.635 33.2021 436.84 33.7354 436.84 34.3506C436.84 34.9658 436.635 35.4922 436.225 35.9297C435.815 36.3672 435.343 36.5859 434.81 36.5859C434.277 36.5859 433.805 36.3672 433.395 35.9297C432.985 35.4922 432.78 34.9658 432.78 34.3506C432.78 33.7354 432.985 33.2021 433.395 32.7646C433.805 32.3271 434.277 32.1084 434.81 32.1084ZM439.773 30.9873V37.707H443.136C443.847 37.707 444.415 37.5293 444.825 37.1602C445.235 36.7979 445.447 36.3262 445.447 35.7451C445.447 35.5264 445.406 35.3145 445.324 35.123C445.242 34.9316 445.153 34.7812 445.057 34.6719C444.961 34.5625 444.845 34.46 444.715 34.3643C444.579 34.2686 444.49 34.2139 444.442 34.1865C444.387 34.166 444.353 34.1523 444.326 34.1455L444.517 34.0156C444.647 33.9199 444.777 33.7559 444.9 33.5234C445.023 33.291 445.091 33.0312 445.091 32.7441C445.091 32.2383 444.9 31.8145 444.524 31.4863C444.141 31.1582 443.635 30.9941 442.993 30.9941L439.773 30.9873ZM443.136 34.7061C443.403 34.7061 443.622 34.7949 443.792 34.9727C443.957 35.1504 444.045 35.3623 444.045 35.6152C444.045 35.8887 443.963 36.1143 443.799 36.2783C443.635 36.4424 443.41 36.5244 443.136 36.5244H441.174V34.7061H443.136ZM443.697 32.8809C443.697 33.0996 443.628 33.2705 443.505 33.3936C443.375 33.5166 443.205 33.585 442.993 33.585H441.174V32.1836H442.993C443.205 32.1836 443.375 32.2451 443.505 32.3682C443.628 32.4912 443.697 32.6621 443.697 32.8809ZM451.879 30.9873L448.379 35.3965V30.9873H446.978V37.707H448.236L451.736 33.2979V37.707H453.137V30.9873H451.879ZM454.682 34.3506C454.682 35.2939 455.024 36.1074 455.721 36.8047C456.418 37.502 457.239 37.8506 458.182 37.8506C458.503 37.8506 458.825 37.7959 459.146 37.6934C459.46 37.5908 459.72 37.4814 459.925 37.3584C460.124 37.2354 460.315 37.0986 460.5 36.9414C460.677 36.7842 460.8 36.6748 460.855 36.6064C460.91 36.5381 460.951 36.4902 460.978 36.4561L460.069 35.5469L459.857 35.8066C459.72 35.9707 459.495 36.1484 459.18 36.3262C458.866 36.5039 458.538 36.5928 458.182 36.5928C457.608 36.5928 457.116 36.374 456.699 35.9434C456.282 35.5059 456.077 34.9795 456.077 34.3506C456.077 33.7217 456.282 33.1953 456.699 32.7646C457.116 32.3271 457.608 32.1152 458.182 32.1152C458.538 32.1152 458.866 32.2041 459.18 32.3887C459.495 32.5664 459.693 32.71 459.789 32.8193C459.884 32.9287 459.953 33.0176 460 33.0928L460.91 32.1836L460.616 31.8623C460.417 31.6367 460.096 31.4111 459.645 31.1855C459.194 30.96 458.702 30.8506 458.182 30.8506C457.239 30.8506 456.418 31.1992 455.721 31.8965C455.024 32.5938 454.682 33.4072 454.682 34.3506ZM463.774 34.9043H467.062V37.707H468.463V30.9873H467.062V33.6465H463.774V30.9873H462.373V37.707H463.774V34.9043ZM471.827 36.5176V34.2754H473.296C473.611 34.2754 473.877 34.3848 474.096 34.5967C474.308 34.8154 474.417 35.082 474.417 35.3965C474.417 35.7178 474.308 35.9844 474.096 36.1963C473.877 36.415 473.611 36.5176 473.296 36.5176H471.827ZM475.819 35.4033C475.819 34.7334 475.586 34.1797 475.122 33.7422C474.657 33.3047 474.048 33.0859 473.29 33.0859H471.82V30.9873H470.418V37.707H473.29C474.048 37.707 474.657 37.4951 475.122 37.0576C475.586 36.627 475.819 36.0732 475.819 35.4033ZM478.198 30.9941H476.796V37.7139H478.198V30.9941ZM485.061 30.9873L481.561 35.3965V30.9873H480.16V37.707H481.417L484.917 33.2979V37.707H486.319V30.9873H485.061ZM483.236 28.8887C482.956 28.8887 482.723 28.7998 482.539 28.6084C482.347 28.417 482.258 28.1846 482.258 27.9043H481.212C481.212 28.4648 481.404 28.9365 481.787 29.3057C482.169 29.6816 482.655 29.8662 483.243 29.8662C483.831 29.8662 484.316 29.6816 484.699 29.3057C485.082 28.9365 485.273 28.4648 485.273 27.9043H484.22C484.22 28.1914 484.125 28.4238 483.94 28.6084C483.749 28.7998 483.516 28.8887 483.236 28.8887ZM491.083 37.707H496.614V39.3887H498.015V36.4492H497.038V30.9873H495.636V36.4492H492.485V30.9873H491.083V37.707ZM505.637 34.8359L505.712 34.1387C505.712 33.1953 505.398 32.416 504.769 31.7871C504.14 31.1582 503.361 30.8438 502.417 30.8438C501.474 30.8438 500.667 31.1855 499.998 31.8555C499.328 32.5254 498.986 33.332 498.986 34.2754C498.986 35.2598 499.334 36.1006 500.025 36.7979C500.715 37.4951 501.536 37.8438 502.486 37.8438C502.841 37.8438 503.19 37.7959 503.525 37.6934C503.86 37.5908 504.133 37.4814 504.338 37.3584C504.55 37.2354 504.749 37.0986 504.933 36.9414C505.125 36.7842 505.248 36.6748 505.302 36.6064C505.357 36.5381 505.398 36.4902 505.425 36.4492L504.516 35.54L504.304 35.7998C504.167 35.9707 503.928 36.1416 503.586 36.3193C503.245 36.4971 502.882 36.5859 502.486 36.5859C501.946 36.5859 501.481 36.415 501.084 36.0664C500.688 35.7246 500.456 35.3145 500.38 34.8359H505.637ZM502.411 32.04C502.93 32.04 503.354 32.1904 503.696 32.4912C504.038 32.792 504.25 33.1748 504.332 33.6465H500.442C500.565 33.1748 500.797 32.792 501.139 32.4912C501.481 32.1904 501.905 32.04 502.411 32.04ZM508.645 34.9043H511.933V37.707H513.334V30.9873H511.933V33.6465H508.645V30.9873H507.244V37.707H508.645V34.9043ZM514.599 32.2451H516.91V37.707H518.304V32.2451H520.615V30.9873H514.599V32.2451ZM525.441 37.8438C526.33 37.8438 527.095 37.5088 527.751 36.8252C528.408 36.1416 528.736 35.3145 528.736 34.3438C528.736 33.373 528.408 32.5527 527.751 31.8691C527.095 31.1855 526.33 30.8438 525.441 30.8438C525.044 30.8438 524.662 30.9326 524.286 31.0967C523.903 31.2676 523.657 31.4043 523.541 31.5068C523.424 31.6162 523.335 31.6982 523.274 31.7598V30.9873H521.873V40.6465H523.274V36.9346L523.37 37.0371C523.424 37.0918 523.52 37.167 523.65 37.2627C523.78 37.3584 523.93 37.4473 524.101 37.5361C524.265 37.625 524.47 37.7002 524.709 37.7549C524.942 37.8164 525.188 37.8438 525.441 37.8438ZM525.304 32.1084C525.837 32.1084 526.309 32.3271 526.719 32.7646C527.129 33.2021 527.334 33.7354 527.334 34.3506C527.334 34.9658 527.129 35.4922 526.719 35.9297C526.309 36.3672 525.837 36.5859 525.304 36.5859C524.771 36.5859 524.299 36.3672 523.889 35.9297C523.479 35.4922 523.274 34.9658 523.274 34.3506C523.274 33.7354 523.479 33.2021 523.889 32.7646C524.299 32.3271 524.771 32.1084 525.304 32.1084Z" fill="#363A45"/>
<path d="M580.006 37.707V27.9043H578.188L573.362 34.1387V27.9043H571.256V37.707H573.082L577.908 31.4795V37.707H580.006ZM583.992 35.1162H586.651V37.707H588.544V30.8438H586.651V33.4346H583.992V30.8438H582.105V37.707H583.992V35.1162ZM589.659 32.6689H591.833V37.707H593.719V32.6689H595.893V30.8438H589.659V32.6689ZM603.515 34.9043L603.583 34.1387C603.583 33.1611 603.255 32.3477 602.606 31.6914C601.95 31.0352 601.136 30.707 600.159 30.707C599.174 30.707 598.333 31.0625 597.636 31.7598C596.932 32.457 596.583 33.2979 596.583 34.2754C596.583 35.2598 596.939 36.1006 597.65 36.7979C598.361 37.4951 599.215 37.8438 600.227 37.8438C600.583 37.8438 600.924 37.8027 601.259 37.7207C601.594 37.6387 601.868 37.5498 602.08 37.4404C602.285 37.3311 602.483 37.208 602.674 37.0713C602.859 36.9346 602.982 36.8389 603.037 36.7842L603.167 36.6543L602.189 35.3965L601.991 35.6084C601.868 35.752 601.649 35.8955 601.348 36.0322C601.047 36.1689 600.719 36.2373 600.364 36.2373C599.872 36.2373 599.461 36.1143 599.14 35.8545C598.812 35.5947 598.614 35.2803 598.545 34.9043H603.515ZM600.159 32.3203C600.555 32.3203 600.897 32.4434 601.17 32.6758C601.444 32.915 601.622 33.2158 601.697 33.5781H598.545C598.655 33.209 598.853 32.9014 599.133 32.6689C599.414 32.4365 599.755 32.3203 600.159 32.3203ZM608.909 37.8438C609.797 37.8438 610.563 37.502 611.219 36.8115C611.875 36.1211 612.204 35.2734 612.204 34.2754C612.204 33.2773 611.875 32.4365 611.219 31.7461C610.563 31.0557 609.797 30.707 608.909 30.707C608.656 30.707 608.417 30.748 608.184 30.8164C607.952 30.8848 607.76 30.9668 607.617 31.0557C607.466 31.1445 607.33 31.2471 607.207 31.3564C607.083 31.4658 607.001 31.541 606.96 31.582C606.919 31.623 606.892 31.6572 606.878 31.6846V30.8438H604.992V40.6465H606.878V36.8662L607.09 37.1191C607.227 37.2832 607.466 37.4404 607.808 37.6045C608.15 37.7686 608.512 37.8438 608.909 37.8438ZM608.56 32.3887C609.025 32.3887 609.421 32.5664 609.75 32.9219C610.078 33.2773 610.242 33.7285 610.242 34.2822C610.242 34.8291 610.078 35.2871 609.75 35.6426C609.421 35.998 609.025 36.1758 608.56 36.1758C608.095 36.1758 607.699 35.998 607.371 35.6426C607.042 35.2871 606.878 34.8291 606.878 34.2822C606.878 33.7285 607.042 33.2773 607.371 32.9219C607.699 32.5664 608.095 32.3887 608.56 32.3887ZM615.492 35.1162H618.151V37.707H620.044V30.8438H618.151V33.4346H615.492V30.8438H613.605V37.707H615.492V35.1162ZM628.371 34.9043L628.439 34.1387C628.439 33.1611 628.111 32.3477 627.461 31.6914C626.805 31.0352 625.992 30.707 625.014 30.707C624.03 30.707 623.189 31.0625 622.492 31.7598C621.788 32.457 621.439 33.2979 621.439 34.2754C621.439 35.2598 621.794 36.1006 622.505 36.7979C623.216 37.4951 624.071 37.8438 625.083 37.8438C625.438 37.8438 625.78 37.8027 626.115 37.7207C626.45 37.6387 626.723 37.5498 626.935 37.4404C627.14 37.3311 627.338 37.208 627.53 37.0713C627.714 36.9346 627.837 36.8389 627.892 36.7842L628.022 36.6543L627.044 35.3965L626.846 35.6084C626.723 35.752 626.504 35.8955 626.204 36.0322C625.903 36.1689 625.575 36.2373 625.219 36.2373C624.727 36.2373 624.317 36.1143 623.996 35.8545C623.667 35.5947 623.469 35.2803 623.401 34.9043H628.371ZM625.014 32.3203C625.411 32.3203 625.752 32.4434 626.026 32.6758C626.299 32.915 626.477 33.2158 626.552 33.5781H623.401C623.51 33.209 623.708 32.9014 623.989 32.6689C624.269 32.4365 624.611 32.3203 625.014 32.3203ZM629.143 32.6689H631.317V37.707H633.204V32.6689H635.377V30.8438H629.143V32.6689ZM641.181 32.7373H636.143V34.4189H641.181V32.7373ZM646.219 36.0254L648.038 33.6465V37.707H649.924V30.8438H648.318L646.219 33.5781L644.114 30.8438H642.507V37.707H644.394V33.6465L646.219 36.0254ZM655.53 37.707H657.417V33.4346C657.417 32.6553 657.143 32.0059 656.596 31.4863C656.049 30.9668 655.338 30.707 654.477 30.707C654.142 30.707 653.814 30.7617 653.493 30.8574C653.178 30.9531 652.918 31.0625 652.72 31.1787C652.529 31.2949 652.344 31.4248 652.18 31.5752C652.016 31.7256 651.907 31.835 651.859 31.8965C651.811 31.958 651.77 32.0059 651.743 32.04L652.789 33.0859L652.946 32.9219C653.055 32.7988 653.233 32.6826 653.486 32.5664C653.746 32.4502 654.026 32.3887 654.333 32.3887C654.709 32.3887 655.003 32.4844 655.208 32.6621C655.42 32.8467 655.523 33.0791 655.523 33.3662L653.349 33.7559C652.72 33.8721 652.221 34.1182 651.859 34.4873C651.503 34.8633 651.319 35.3281 651.319 35.8887C651.319 36.4355 651.538 36.8936 651.961 37.2764C652.392 37.6592 652.946 37.8438 653.629 37.8438C653.985 37.8438 654.327 37.7686 654.655 37.6182C654.983 37.4678 655.202 37.3447 655.297 37.249C655.393 37.1533 655.468 37.0781 655.523 37.0098L655.53 37.707ZM654.122 36.3057C653.52 36.3057 653.212 36.0732 653.212 35.6084C653.212 35.1777 653.472 34.918 653.985 34.8359L655.523 34.5557V34.7676C655.523 35.2529 655.4 35.6289 655.147 35.9023C654.894 36.1758 654.552 36.3057 654.122 36.3057ZM664.211 30.8438H659.242V37.707H661.128V32.5938H664.211V30.8438ZM669.038 37.707H670.924V33.4346C670.924 32.6553 670.651 32.0059 670.104 31.4863C669.557 30.9668 668.846 30.707 667.985 30.707C667.65 30.707 667.322 30.7617 667 30.8574C666.686 30.9531 666.426 31.0625 666.228 31.1787C666.037 31.2949 665.852 31.4248 665.688 31.5752C665.524 31.7256 665.415 31.835 665.367 31.8965C665.319 31.958 665.278 32.0059 665.25 32.04L666.296 33.0859L666.454 32.9219C666.563 32.7988 666.741 32.6826 666.994 32.5664C667.253 32.4502 667.534 32.3887 667.841 32.3887C668.217 32.3887 668.511 32.4844 668.716 32.6621C668.928 32.8467 669.031 33.0791 669.031 33.3662L666.857 33.7559C666.228 33.8721 665.729 34.1182 665.367 34.4873C665.011 34.8633 664.827 35.3281 664.827 35.8887C664.827 36.4355 665.045 36.8936 665.469 37.2764C665.9 37.6592 666.454 37.8438 667.137 37.8438C667.493 37.8438 667.834 37.7686 668.163 37.6182C668.491 37.4678 668.709 37.3447 668.805 37.249C668.901 37.1533 668.976 37.0781 669.031 37.0098L669.038 37.707ZM667.629 36.3057C667.028 36.3057 666.72 36.0732 666.72 35.6084C666.72 35.1777 666.98 34.918 667.493 34.8359L669.031 34.5557V34.7676C669.031 35.2529 668.908 35.6289 668.655 35.9023C668.402 36.1758 668.06 36.3057 667.629 36.3057ZM677.576 32.7373C677.576 32.1904 677.33 31.7119 676.844 31.3086C676.359 30.9121 675.716 30.707 674.917 30.707C674.582 30.707 674.26 30.748 673.946 30.8301C673.631 30.9121 673.378 31.001 673.194 31.0967C673.002 31.1924 672.832 31.3086 672.667 31.4385C672.503 31.5684 672.401 31.6572 672.353 31.7119C672.305 31.7666 672.271 31.8008 672.257 31.8281L673.31 32.874L673.488 32.7236C673.611 32.6143 673.789 32.5049 674.021 32.4023C674.253 32.2998 674.486 32.2451 674.711 32.2451C675.313 32.252 675.621 32.4844 675.621 32.9492C675.621 33.1406 675.539 33.291 675.388 33.4072C675.238 33.5234 675.012 33.5781 674.711 33.5781H674.007V34.8359H674.711C675.45 34.8428 675.826 35.0752 675.826 35.54C675.826 35.7656 675.73 35.9502 675.539 36.0938C675.347 36.2373 675.074 36.3057 674.711 36.3057C674.397 36.3057 674.103 36.2373 673.823 36.0938C673.542 35.9502 673.358 35.834 673.276 35.752C673.194 35.6699 673.132 35.5947 673.098 35.54L672.045 36.5859L672.162 36.7295C672.223 36.8115 672.333 36.9141 672.497 37.0371C672.654 37.1602 672.838 37.2764 673.05 37.3994C673.269 37.5225 673.542 37.6318 673.871 37.7139C674.199 37.8027 674.547 37.8438 674.91 37.8438C675.846 37.8438 676.571 37.6523 677.083 37.2559C677.596 36.8594 677.849 36.3809 677.849 35.8203C677.849 35.5674 677.801 35.335 677.699 35.1299C677.596 34.9248 677.487 34.7676 677.364 34.6514C677.241 34.5352 677.104 34.4326 676.94 34.3506C676.783 34.2686 676.673 34.2139 676.605 34.1865C676.543 34.166 676.496 34.1523 676.455 34.1455L676.564 34.1045C676.639 34.084 676.735 34.0361 676.851 33.9678C676.96 33.8994 677.077 33.8105 677.186 33.7148C677.295 33.6191 677.391 33.4824 677.466 33.3115C677.535 33.1338 677.576 32.9424 677.576 32.7373ZM684.118 30.8438L681.144 34.6992V30.8438H679.257V37.707H680.891L683.878 33.8584V37.707H685.765V30.8438H684.118ZM689.47 35.1162H692.129V37.707H694.023V30.8438H692.129V33.4346H689.47V30.8438H687.583V37.707H689.47V35.1162ZM699.129 27.9043V37.707H702.773C704.195 37.707 705.391 37.2354 706.362 36.2852C707.326 35.3418 707.811 34.1797 707.811 32.8057C707.811 31.4385 707.326 30.2764 706.362 29.3262C705.391 28.3828 704.195 27.9043 702.773 27.9043H699.129ZM702.773 29.7979C703.607 29.7979 704.311 30.0918 704.872 30.6729C705.432 31.2607 705.712 31.9717 705.712 32.8125C705.712 33.6533 705.425 34.3643 704.851 34.9453C704.277 35.5332 703.58 35.8203 702.773 35.8203H701.235V29.7979H702.773ZM711.311 30.8438H709.417V37.707H711.311V30.8438ZM711.448 28.8887C711.448 28.5742 711.345 28.3145 711.147 28.123C710.942 27.9316 710.668 27.8359 710.327 27.8359C710.012 27.8359 709.759 27.9316 709.568 28.123C709.376 28.3145 709.281 28.5742 709.281 28.8887C709.281 29.2031 709.37 29.4561 709.561 29.6475C709.752 29.8389 710.005 29.9346 710.327 29.9346C710.668 29.9346 710.942 29.8389 711.147 29.6475C711.345 29.4561 711.448 29.2031 711.448 28.8887ZM715.167 27.9043H713.273V37.707H715.167V27.9043ZM718.667 38.124C718.441 38.6436 718.044 38.8965 717.477 38.8965C717.197 38.8965 716.964 38.8555 716.78 38.7598V40.4346L716.917 40.4824C717.012 40.5234 717.156 40.5576 717.361 40.5918C717.559 40.6328 717.764 40.6465 717.969 40.6465C719.118 40.6465 720 39.8057 720.628 38.124L723.356 30.8438H721.401L719.788 35.3965L718.181 30.8438H716.219L718.878 37.6387L718.667 38.124ZM723.274 36.7979C723.274 37.0781 723.383 37.3242 723.602 37.5293C723.821 37.7412 724.081 37.8438 724.395 37.8438C724.703 37.8438 724.969 37.7412 725.188 37.5293C725.407 37.3242 725.516 37.0781 725.516 36.7979C725.516 36.5176 725.407 36.2715 725.188 36.0596C724.969 35.8545 724.703 35.7451 724.395 35.7451C724.081 35.7451 723.821 35.8545 723.602 36.0596C723.383 36.2715 723.274 36.5176 723.274 36.7979ZM731.115 30.7754H730.834C730.458 30.7754 730.103 30.8643 729.761 31.0283C729.419 31.1992 729.201 31.3359 729.098 31.4385C729.002 31.541 728.92 31.623 728.866 31.6846V30.8438H726.979V37.707H728.866V34.4189C728.866 33.8311 729.016 33.3799 729.303 33.0654C729.59 32.751 729.987 32.5938 730.479 32.5938C730.759 32.6006 730.971 32.6279 731.108 32.6758L731.115 30.7754ZM736.789 37.707H738.675V30.8438H736.789V34.4873C736.789 35.0068 736.659 35.4033 736.406 35.6768C736.153 35.957 735.811 36.0938 735.387 36.0938C735.004 36.0938 734.683 35.9707 734.43 35.7178C734.177 35.4717 734.054 35.1504 734.054 34.7676V30.8438H732.167V34.9521C732.167 35.8271 732.414 36.5312 732.906 37.0576C733.398 37.584 734.041 37.8438 734.827 37.8438C735.196 37.8438 735.551 37.7686 735.893 37.6182C736.235 37.4678 736.454 37.3447 736.556 37.249C736.652 37.1533 736.734 37.0781 736.789 37.0098V37.707Z" fill="#363A45"/>
<path d="M781.021 27.7676C779.551 27.7676 778.321 28.2598 777.33 29.2305C776.332 30.208 775.839 31.3975 775.839 32.8057C775.839 34.2139 776.332 35.4102 777.33 36.3809C778.321 37.3584 779.551 37.8438 781.021 37.8438C781.513 37.8438 781.992 37.7754 782.457 37.6387C782.921 37.502 783.304 37.3447 783.591 37.1738C783.878 36.9961 784.152 36.7979 784.412 36.5791C784.671 36.3535 784.835 36.1963 784.911 36.1074C784.986 36.0186 785.041 35.9502 785.075 35.8955L784.09 34.9111L783.981 35.082C783.899 35.1846 783.769 35.3076 783.591 35.458C783.414 35.6084 783.215 35.7588 782.983 35.9092C782.75 36.0596 782.463 36.1826 782.115 36.292C781.766 36.4014 781.397 36.4561 781.014 36.4561C779.996 36.4561 779.134 36.1006 778.43 35.3965C777.726 34.6855 777.371 33.8242 777.371 32.8125C777.371 31.7939 777.726 30.9326 778.43 30.2285C779.141 29.5244 780.002 29.1758 781.014 29.1758C781.397 29.1758 781.766 29.2236 782.108 29.333C782.45 29.4424 782.73 29.5586 782.942 29.6816C783.161 29.8047 783.359 29.9551 783.543 30.126C783.735 30.3037 783.851 30.4199 783.906 30.4883C783.96 30.5566 783.995 30.6045 784.022 30.6387L785 29.6543L784.849 29.4629C784.747 29.333 784.583 29.1758 784.357 28.9912C784.138 28.8135 783.878 28.6289 783.578 28.4375C783.277 28.2529 782.901 28.0957 782.443 27.9658C781.992 27.8359 781.513 27.7676 781.021 27.7676ZM792.499 30.9873H790.817L787.946 33.9951V30.9873H786.544V37.707H787.946V35.8203L788.999 34.6992L791.166 37.707H792.704L789.908 33.79L792.499 30.9873ZM795.431 38.4043C795.171 39.0605 794.775 39.3887 794.242 39.3887C794.002 39.3887 793.77 39.3408 793.538 39.2451V40.5098L793.633 40.5371C793.708 40.5645 793.832 40.5918 793.996 40.6123C794.16 40.6396 794.331 40.6465 794.522 40.6465C795.028 40.6465 795.452 40.4824 795.793 40.1475C796.135 39.8193 796.477 39.2383 796.826 38.4043L799.84 30.9873H798.371L796.409 35.8887L794.447 30.9873H792.977L795.711 37.707L795.431 38.4043ZM802.356 32.2451H805.644V37.707H807.045V30.9873H800.955V37.707H802.356V32.2451ZM814.961 30.9873H813.28L810.409 33.9951V30.9873H809.007V37.707H810.409V35.8203L811.461 34.6992L813.628 37.707H815.167L812.371 33.79L814.961 30.9873ZM821.674 37.707V33.3662C821.674 32.6553 821.408 32.0605 820.888 31.5752C820.362 31.0898 819.692 30.8438 818.872 30.8438C818.543 30.8438 818.222 30.8916 817.915 30.9805C817.607 31.0693 817.361 31.1719 817.176 31.2812C816.985 31.3975 816.807 31.5273 816.643 31.6709C816.479 31.8145 816.37 31.917 816.322 31.9717C816.274 32.0264 816.24 32.0742 816.212 32.1084L817.122 33.0176L817.306 32.7783C817.416 32.6279 817.614 32.4844 817.901 32.334C818.188 32.1836 818.516 32.1084 818.872 32.1084C819.282 32.1084 819.617 32.2314 819.876 32.4707C820.136 32.7168 820.273 33.0107 820.273 33.3662L817.819 33.79C817.21 33.8926 816.732 34.1318 816.383 34.501C816.035 34.877 815.864 35.3418 815.864 35.8955C815.864 36.4014 816.089 36.8594 816.541 37.2559C816.992 37.6523 817.559 37.8506 818.243 37.8506C818.475 37.8506 818.701 37.8164 818.933 37.7617C819.159 37.7002 819.35 37.6318 819.5 37.5566C819.651 37.4814 819.788 37.3994 819.917 37.3037C820.047 37.208 820.136 37.1465 820.177 37.1055C820.218 37.0645 820.252 37.0303 820.273 37.0166V37.7139L821.674 37.707ZM818.455 36.5928C818.085 36.5928 817.798 36.5039 817.58 36.3398C817.361 36.1689 817.258 35.9707 817.258 35.7451C817.258 35.5059 817.333 35.3076 817.491 35.1504C817.641 34.9863 817.846 34.8838 818.099 34.8428L820.273 34.4941V34.6309C820.273 35.2598 820.109 35.7383 819.788 36.0801C819.466 36.4219 819.022 36.5928 818.455 36.5928Z" fill="#363A45"/>
<defs>
<linearGradient id="paint0_linear_1457_627" x1="13.5211" y1="-10.7408" x2="1463.89" y2="-10.7408" gradientUnits="userSpaceOnUse">
<stop offset="0.251597" stop-color="#00C65E"/>
<stop offset="1" stop-color="#00C65E" stop-opacity="0"/>
</linearGradient>
<clipPath id="clip0_1457_627">
<rect width="17" height="17" fill="white" transform="translate(308.999 79.707)"/>
</clipPath>
<clipPath id="clip1_1457_627">
<rect x="719.477" y="74.6289" width="300" height="28" rx="14" fill="white"/>
</clipPath>
<clipPath id="clip2_1457_627">
<rect width="19" height="17" fill="white" transform="translate(1249.29 80.1289)"/>
</clipPath>
</defs>
</svg>
