<svg width="17" height="18" viewBox="0 0 17 18" fill="none" xmlns="http://www.w3.org/2000/svg">
<path fill-rule="evenodd" clip-rule="evenodd" d="M0.42417 0.927734C0.203256 0.927734 0.0241699 1.10682 0.0241699 1.32773C0.0241699 1.54865 0.203256 1.72773 0.42417 1.72773H0.936517C1.6544 1.72773 2.28441 2.20588 2.47753 2.8973L4.71976 10.9248C4.72441 10.9414 4.73005 10.9575 4.7366 10.9731L4.98761 11.8989C5.15301 12.509 5.70672 12.9326 6.33883 12.9326H14.0037C14.6359 12.9326 15.1896 12.509 15.355 11.8989L16.9426 6.04285C17.1839 5.15274 16.5136 4.27652 15.5914 4.27652H3.6934L3.24804 2.68208C2.95835 1.64496 2.01334 0.927734 0.936517 0.927734H0.42417ZM5.75974 11.6896L3.96687 5.07652H15.5914C15.9866 5.07652 16.2739 5.45204 16.1705 5.83352L14.5828 11.6896C14.512 11.9511 14.2747 12.1326 14.0037 12.1326H6.33883C6.06793 12.1326 5.83063 11.9511 5.75974 11.6896Z" fill="#363A45"/>
<path d="M8.70022 16.0796C8.70022 16.8655 8.0624 17.5033 7.27484 17.5033C6.48729 17.5033 5.84946 16.8655 5.84946 16.0796C5.84946 15.2936 6.48729 14.6559 7.27484 14.6559C8.0624 14.6559 8.70022 15.2936 8.70022 16.0796Z" stroke="#363A45" stroke-width="0.8"/>
<path d="M14.4927 16.0796C14.4927 16.8655 13.8549 17.5033 13.0673 17.5033C12.2798 17.5033 11.6419 16.8655 11.6419 16.0796C11.6419 15.2936 12.2798 14.6559 13.0673 14.6559C13.8549 14.6559 14.4927 15.2936 14.4927 16.0796Z" stroke="#363A45" stroke-width="0.8"/>
</svg>
